mtllib ./Bridge3.mtl
g Bridge 3
v -1 0.2 1
v 4.73205 0.56221 25.33131
v -1.001977 1.199894 0.9855808
v 4.730073 1.562104 25.31689
v 4.73205 0.56221 25.33131
v -3.054816 0.5732629 27.1656
v 4.730073 1.562104 25.31689
v -3.056793 1.573157 27.15118
v -3.054816 0.5732629 27.1656
v -8.786866 0.2110529 2.834291
v -3.056793 1.573157 27.15118
v -8.788843 1.210947 2.819872
v -8.786866 0.2110529 2.834291
v -1 0.2 1
v -8.788843 1.210947 2.819872
v -1.001977 1.199894 0.9855808
v -1.001977 1.199894 0.9855808
v 4.730073 1.562104 25.31689
v -8.788843 1.210947 2.819872
v -3.056793 1.573157 27.15118
v -8.786866 0.2110529 2.834291
v -3.054816 0.5732629 27.1656
v -1 0.2 1
v 4.73205 0.56221 25.33131

vn 0.9733583 -0.001381611 -0.2292864
vn 0.9733583 -0.001381611 -0.2292864
vn 0.9733583 -0.001381611 -0.2292864
vn 0.9733583 -0.001381611 -0.2292864
vn 0.229282 0.0144884 0.9732524
vn 0.229282 0.0144884 0.9732524
vn 0.229282 0.0144884 0.9732524
vn 0.229282 0.0144884 0.9732524
vn -0.9733583 0.001381611 0.2292864
vn -0.9733583 0.001381611 0.2292864
vn -0.9733583 0.001381611 0.2292864
vn -0.9733583 0.001381611 0.2292864
vn -0.229282 -0.0144884 -0.9732524
vn -0.229282 -0.0144884 -0.9732524
vn -0.229282 -0.0144884 -0.9732524
vn -0.229282 -0.0144884 -0.9732524
vn -0.001977333 0.9998941 -0.01441918
vn -0.001977333 0.9998941 -0.01441918
vn -0.001977333 0.9998941 -0.01441918
vn -0.001977333 0.9998941 -0.01441918
vn 0.001977333 -0.9998941 0.01441918
vn 0.001977333 -0.9998941 0.01441918
vn 0.001977333 -0.9998941 0.01441918
vn 0.001977333 -0.9998941 0.01441918

vt 25 0
vt 0 0
vt 25 1
vt 0 1
vt 8 0
vt 0 0
vt 8 1
vt 0 1
vt 25 0
vt 0 0
vt 25 1
vt 0 1
vt 8 0
vt 0 0
vt 8 1
vt 0 1
vt 0 8
vt 25 8
vt 0 0
vt 25 0
vt 25 0
vt 0 0
vt 25 8
vt 0 8

usemtl Default_Prototype
usemap Default_Prototype
f 2/2/2 1/1/1 3/3/3
f 4/4/4 2/2/2 3/3/3
f 6/6/6 5/5/5 7/7/7
f 8/8/8 6/6/6 7/7/7
f 10/10/10 9/9/9 11/11/11
f 12/12/12 10/10/10 11/11/11
f 14/14/14 13/13/13 15/15/15
f 16/16/16 14/14/14 15/15/15
f 18/18/18 17/17/17 19/19/19
f 20/20/20 18/18/18 19/19/19
f 22/22/22 21/21/21 23/23/23
f 24/24/24 22/22/22 23/23/23
