mtllib ./WindmillBlades.mtl
g New Game Object
v 0.1999969 7.9 -2.199982
v -0.3000031 7.9 -2.199982
v 0.1999969 8.4 -2.199982
v -0.3000031 8.4 -2.199982
v -0.3000031 7.9 -2.199982
v -0.3000031 7.9 -3.199981
v -0.3000031 8.4 -2.199982
v -0.3000031 8.4 -3.199981
v -0.3000031 7.9 -3.199981
v 0.1999969 7.9 -3.199982
v -0.3000031 8.4 -3.199981
v 0.1999969 8.4 -3.199982
v 0.1999969 7.9 -3.199982
v 0.1999969 7.9 -2.199982
v 0.1999969 8.4 -3.199982
v 0.1999969 8.4 -2.199982
v 0.1999969 8.4 -2.199982
v -0.3000031 8.4 -2.199982
v 0.1999969 8.4 -3.199982
v -0.3000031 8.4 -3.199981
v 0.1999969 7.9 -3.199982
v -0.3000031 7.9 -3.199981
v 0.1999969 7.9 -2.199982
v -0.3000031 7.9 -2.199982
v -3.902895 11.4 -2.97883
v -3.195788 12.10711 -2.97883
v 3.168173 4.328931 -2.97883
v 3.87528 5.036037 -2.97883
v -3.195788 12.10711 -2.97883
v -3.195788 12.10711 -3.07883
v 3.87528 5.036037 -2.97883
v 3.87528 5.036037 -3.07883
v -3.195788 12.10711 -3.07883
v -3.902895 11.4 -3.07883
v 3.87528 5.036037 -3.07883
v 3.168173 4.328931 -3.07883
v -3.902895 11.4 -3.07883
v -3.902895 11.4 -2.97883
v 3.168173 4.328931 -3.07883
v 3.168173 4.328931 -2.97883
v 3.168173 4.328931 -2.97883
v 3.87528 5.036037 -2.97883
v 3.168173 4.328931 -3.07883
v 3.87528 5.036037 -3.07883
v -3.902895 11.4 -3.07883
v -3.195788 12.10711 -3.07883
v -3.902895 11.4 -2.97883
v -3.195788 12.10711 -2.97883
v -3.100006 4.299999 -3.000003
v -3.807113 5.007106 -3.000003
v 3.971063 11.37107 -3.000003
v 3.263956 12.07817 -3.000003
v -3.807113 5.007106 -3.000003
v -3.807113 5.007106 -3.100003
v 3.263956 12.07817 -3.000003
v 3.263956 12.07817 -3.100003
v -3.807113 5.007106 -3.100003
v -3.100006 4.299999 -3.100003
v 3.263956 12.07817 -3.100003
v 3.971062 11.37107 -3.100003
v -3.100006 4.299999 -3.100003
v -3.100006 4.299999 -3.000003
v 3.971062 11.37107 -3.100003
v 3.971063 11.37107 -3.000003
v 3.971063 11.37107 -3.000003
v 3.263956 12.07817 -3.000003
v 3.971062 11.37107 -3.100003
v 3.263956 12.07817 -3.100003
v -3.100006 4.299999 -3.100003
v -3.807113 5.007106 -3.100003
v -3.100006 4.299999 -3.000003
v -3.807113 5.007106 -3.000003

vn 0 0 1
vn 0 0 1
vn 0 0 1
vn 0 0 1
vn -1 0 0
vn -1 0 0
vn -1 0 0
vn -1 0 0
vn -4.768372E-07 0 -1
vn -4.768372E-07 0 -1
vn -4.768372E-07 0 -1
vn -4.768372E-07 0 -1
vn 1 0 -1.490116E-08
vn 1 0 -1.490116E-08
vn 1 0 -1.490116E-08
vn 1 0 -1.490116E-08
vn 0 1 0
vn 0 1 0
vn 0 1 0
vn 0 1 0
vn 0 -1 0
vn 0 -1 0
vn 0 -1 0
vn 0 -1 0
vn -3.371747E-08 3.371748E-08 1
vn 5.900561E-08 1.095818E-07 1
vn 5.900561E-08 1.095818E-07 1
vn 1.517287E-07 1.854462E-07 1
vn 0.7071068 0.7071068 0
vn 0.7071068 0.7071068 0
vn 0.7071068 0.7071068 0
vn 0.7071068 0.7071068 0
vn -1.517287E-07 -1.854461E-07 -1
vn -7.586435E-08 -9.272307E-08 -1
vn -7.586435E-08 -9.272307E-08 -1
vn 0 0 -1
vn -0.7071069 -0.7071068 0
vn -0.7071069 -0.7071068 0
vn -0.7071069 -0.7071068 0
vn -0.7071069 -0.7071068 0
vn 0.7071067 -0.7071069 -1.685871E-06
vn 0.7071066 -0.7071069 -1.685873E-06
vn 0.7071066 -0.7071069 -1.685873E-06
vn 0.7071067 -0.7071069 -1.685875E-06
vn -0.7071066 0.7071069 0
vn -0.7071066 0.7071069 0
vn -0.7071066 0.7071069 0
vn -0.7071067 0.7071069 0
vn 0 0 1
vn 0 0 1
vn 0 0 1
vn 0 0 1
vn -0.7071067 0.7071069 0
vn -0.7071067 0.7071069 1.685873E-06
vn -0.7071067 0.7071069 1.685873E-06
vn -0.7071067 0.7071068 3.371751E-06
vn 1.685875E-08 1.685873E-08 -1
vn -7.586432E-08 9.272307E-08 -1
vn -7.586432E-08 9.272307E-08 -1
vn -1.685874E-07 1.685874E-07 -1
vn 0.7071068 -0.7071069 -1.685872E-06
vn 0.7071068 -0.7071069 -2.528807E-06
vn 0.7071068 -0.7071069 -2.528807E-06
vn 0.7071068 -0.7071069 -3.371743E-06
vn 0.7071067 0.7071069 -1.685871E-06
vn 0.7071066 0.7071069 -1.685873E-06
vn 0.7071066 0.7071069 -1.685873E-06
vn 0.7071067 0.7071069 -1.685875E-06
vn -0.707107 -0.7071065 1.685872E-06
vn -0.7071069 -0.7071066 8.429359E-07
vn -0.7071069 -0.7071066 8.429359E-07
vn -0.7071069 -0.7071067 0

vt 0.5 0
vt 0 0
vt 0.5 0.5
vt 0 0.5
vt 0.9999998 0
vt 0 0
vt 0.9999998 0.5
vt 0 0.5
vt 0.5 0
vt 1.490116E-08 0
vt 0.5 0.5
vt 1.490116E-08 0.5
vt 1 0
vt 0 0
vt 1 0.5
vt 0 0.5
vt 0 1
vt 0.5 1
vt 1.490116E-08 0
vt 0.5 2.384186E-07
vt 0.5 0
vt 0 2.384186E-07
vt 0.5 1
vt 0 1
vt 0 7.071069
vt 0.7071068 7.778175
vt 7.071068 0
vt 7.778175 0.7071066
vt 2.384186E-07 10
vt 0.1000001 10
vt 0 0
vt 0.0999999 4.768372E-07
vt 7.071068 7.778175
vt 7.778175 7.071069
vt 0 0.7071068
vt 0.7071068 2.384186E-07
vt 0 10
vt 0.09999967 10
vt 0 9.536743E-07
vt 0.1000001 4.768372E-07
vt 1.490116E-07 0.1000001
vt 1 0.0999999
vt -5.960464E-08 0
vt 0.9999999 0
vt 0.9999999 2.384186E-07
vt 0 0
vt 0.9999999 0.0999999
vt 0 0.0999999
vt 0.7071068 0
vt 0 0.7071071
vt 7.778175 7.071068
vt 7.071069 7.778174
vt 10 0.1000001
vt 10 0
vt 0 0.1000001
vt 0 2.384186E-07
vt 7.778175 0.7071071
vt 7.071069 0
vt 0.7071071 7.778174
vt 2.384186E-07 7.071068
vt 0 0
vt 4.768372E-07 0.1000001
vt 10 0
vt 10 0.1000001
vt 0 0.1000001
vt 0.9999999 0.1000001
vt 1.490116E-07 0
vt 1 2.384186E-07
vt 1.66893E-06 0
vt 0 1
vt 0.1000018 0
vt 0.1000001 1

usemtl Default_Prototype
usemap Default_Prototype
f 2/2/2 1/1/1 3/3/3
f 4/4/4 2/2/2 3/3/3
f 6/6/6 5/5/5 7/7/7
f 8/8/8 6/6/6 7/7/7
f 10/10/10 9/9/9 11/11/11
f 12/12/12 10/10/10 11/11/11
f 14/14/14 13/13/13 15/15/15
f 16/16/16 14/14/14 15/15/15
f 18/18/18 17/17/17 19/19/19
f 20/20/20 18/18/18 19/19/19
f 22/22/22 21/21/21 23/23/23
f 24/24/24 22/22/22 23/23/23
f 26/26/26 25/25/25 27/27/27
f 28/28/28 26/26/26 27/27/27
f 30/30/30 29/29/29 31/31/31
f 32/32/32 30/30/30 31/31/31
f 34/34/34 33/33/33 35/35/35
f 36/36/36 34/34/34 35/35/35
f 38/38/38 37/37/37 39/39/39
f 40/40/40 38/38/38 39/39/39
f 42/42/42 41/41/41 43/43/43
f 44/44/44 42/42/42 43/43/43
f 46/46/46 45/45/45 47/47/47
f 48/48/48 46/46/46 47/47/47
f 50/50/50 49/49/49 51/51/51
f 52/52/52 50/50/50 51/51/51
f 54/54/54 53/53/53 55/55/55
f 56/56/56 54/54/54 55/55/55
f 58/58/58 57/57/57 59/59/59
f 60/60/60 58/58/58 59/59/59
f 62/62/62 61/61/61 63/63/63
f 64/64/64 62/62/62 63/63/63
f 66/66/66 65/65/65 67/67/67
f 68/68/68 66/66/66 67/67/67
f 70/70/70 69/69/69 71/71/71
f 72/72/72 70/70/70 71/71/71
