mtllib ./IceShard.mtl
g IceShard
v 0.02059869 0 0
v 0.03580936 -0.1102097 -1.313802E-08
v 0.2107581 -0.009025902 0.7500001
v 0.02059869 0 0
v 0.03580936 -0.1102097 -1.313802E-08
v 0.1875 0 0
v 0.03580936 -0.1102097 -1.313802E-08
v 0.1295594 -0.1783231 -2.125777E-08
v 0.2107581 -0.009025902 0.7500001
v 0.03580936 -0.1102097 -1.313802E-08
v 0.1295594 -0.1783231 -2.125777E-08
v 0.1875 0 0
v 0.1295594 -0.1783231 -2.125777E-08
v 0.2454407 -0.1614116 -1.924176E-08
v 0.2107581 -0.009025902 0.7500001
v 0.1295594 -0.1783231 -2.125777E-08
v 0.2454407 -0.1614116 -1.924176E-08
v 0.1875 0 0
v 0.2454407 -0.1614116 -1.924176E-08
v 0.3391908 -0.1102097 -1.313802E-08
v 0.2107581 -0.009025902 0.7500001
v 0.2454407 -0.1614116 -1.924176E-08
v 0.3391908 -0.1102097 -1.313802E-08
v 0.1875 0 0
v 0.3391908 -0.1102097 -1.313802E-08
v 0.4014166 1.639177E-08 1.954051E-15
v 0.2107581 -0.009025902 0.7500001
v 0.3391908 -0.1102097 -1.313802E-08
v 0.4014166 1.639177E-08 1.954051E-15
v 0.1875 0 0
v 0.4014166 1.639177E-08 1.954051E-15
v 0.3391908 0.1102097 1.313802E-08
v 0.2107581 -0.009025902 0.7500001
v 0.4014166 1.639177E-08 1.954051E-15
v 0.3391908 0.1102097 1.313802E-08
v 0.1875 0 0
v 0.3391908 0.1102097 1.313802E-08
v 0.2078428 0.1783231 2.125777E-08
v 0.2107581 -0.009025902 0.7500001
v 0.3391908 0.1102097 1.313802E-08
v 0.2078428 0.1783231 2.125777E-08
v 0.1875 0 0
v 0.2078428 0.1783231 2.125777E-08
v 0.1434002 0.1523858 1.81658E-08
v 0.2107581 -0.009025902 0.7500001
v 0.2078428 0.1783231 2.125777E-08
v 0.1434002 0.1523858 1.81658E-08
v 0.1875 0 0
v 0.1434002 0.1523858 1.81658E-08
v 0.03580937 0.1102098 1.313803E-08
v 0.2107581 -0.009025902 0.7500001
v 0.1434002 0.1523858 1.81658E-08
v 0.03580937 0.1102098 1.313803E-08
v 0.1875 0 0
v 0.03580937 0.1102098 1.313803E-08
v 0.02059869 0 0
v 0.2107581 -0.009025902 0.7500001
v 0.03580937 0.1102098 1.313803E-08
v 0.02059869 0 0
v 0.1875 0 0

vn -0.7857169 -4.204782E-05 -0.6185864
vn -0.6534042 -0.3916484 -0.647823
vn -0.197936 0.02681257 0.9798483
vn -0.7857169 -4.204782E-05 -0.6185864
vn -0.6534042 -0.3916484 -0.647823
vn 0 1.192093E-07 -1
vn -0.6534042 -0.3916484 -0.647823
vn -0.1800222 -0.7356051 -0.6530524
vn -0.197936 0.02681257 0.9798483
vn -0.6534042 -0.3916484 -0.647823
vn -0.1800222 -0.7356051 -0.6530524
vn 0 1.192093E-07 -1
vn -0.1800222 -0.7356051 -0.6530524
vn 0.2439523 -0.7299662 -0.6384645
vn -0.197936 0.02681257 0.9798483
vn -0.1800222 -0.7356051 -0.6530524
vn 0.2439523 -0.7299662 -0.6384645
vn 0 1.192093E-07 -1
vn 0.2439523 -0.7299662 -0.6384645
vn 0.5357688 -0.5438449 -0.6458983
vn -0.197936 0.02681257 0.9798483
vn 0.2439523 -0.7299662 -0.6384645
vn 0.5357688 -0.5438449 -0.6458983
vn 0 1.192093E-07 -1
vn 0.5357688 -0.5438449 -0.6458983
vn 0.7351981 -0.0005181673 -0.6778521
vn -0.197936 0.02681257 0.9798483
vn 0.5357688 -0.5438449 -0.6458983
vn 0.7351981 -0.0005181673 -0.6778521
vn 0 1.192093E-07 -1
vn 0.7351981 -0.0005181673 -0.6778521
vn 0.5326869 0.5522518 -0.6412978
vn -0.197936 0.02681257 0.9798483
vn 0.7351981 -0.0005181673 -0.6778521
vn 0.5326869 0.5522518 -0.6412978
vn 0 1.192093E-07 -1
vn 0.5326869 0.5522518 -0.6412978
vn 0.03643344 0.7501978 -0.6602091
vn -0.197936 0.02681257 0.9798483
vn 0.5326869 0.5522518 -0.6412978
vn 0.03643344 0.7501978 -0.6602091
vn 0 1.192093E-07 -1
vn 0.03643344 0.7501978 -0.6602091
vn -0.2891689 0.7279521 -0.6216649
vn -0.197936 0.02681257 0.9798483
vn 0.03643344 0.7501978 -0.6602091
vn -0.2891689 0.7279521 -0.6216649
vn 0 1.192093E-07 -1
vn -0.2891689 0.7279521 -0.6216649
vn -0.5800616 0.4581392 -0.6735259
vn -0.197936 0.02681257 0.9798483
vn -0.2891689 0.7279521 -0.6216649
vn -0.5800616 0.4581392 -0.6735259
vn 0 1.192093E-07 -1
vn -0.5800616 0.4581392 -0.6735259
vn -0.7857169 -4.204782E-05 -0.6185864
vn -0.197936 0.02681257 0.9798483
vn -0.5800616 0.4581392 -0.6735259
vn -0.7857169 -4.204782E-05 -0.6185864
vn 0 1.192093E-07 -1

vt 7.450581E-09 -5.960464E-08
vt 0.1483393 -5.960464E-08
vt 0.04658611 1.03066
vt 0 0
vt 0.02028088 0.1469463
vt 0.2225351 0
vt 1.490116E-08 0
vt 0.1545085 0
vt 0.1094162 1.029875
vt -7.450581E-09 0.1469463
vt 0.125 0.2377641
vt 0.2022542 0
vt 0 0
vt 0.1561452 0
vt 0.1397275 1.021348
vt 0 0.2377641
vt 0.1545085 0.2152155
vt 0.07725424 0
vt -1.490116E-08 0
vt 0.1424278 0
vt 0.05680469 1.019899
vt 0.07725424 0.2152155
vt 0.2022543 0.1469463
vt 0 0
vt 0 0
vt 0.1687509 0
vt 0.03328641 1.022946
vt 0.2022543 0.1469463
vt 0.2852221 -7.450581E-09
vt 0 1.490116E-08
vt 0 0
vt 0.1687509 0
vt 0.1145056 1.025503
vt 0.2852221 0.1469463
vt 0.2022543 0
vt 0 0.1469463
vt 0 0
vt 0.197278 0
vt 0.07883134 1.023907
vt 0.2022543 0.09081784
vt 0.02712363 0
vt 0 0.2377641
vt -2.980232E-08 0
vt 0.09262192 0
vt 0.08966348 1.026828
vt 0.08592343 0
vt 1.490116E-08 0.03458309
vt 0.0587998 0.2377641
vt 0.005069673 0
vt 0.1591525 0
vt 0 1.026819
vt 0.1434544 0
vt 0 0.0562347
vt 0.2022542 0.203181
vt 0 0
vt 0.1483393 0
vt 0.125596 1.031462
vt 0.0202809 0
vt 0 0.1469463
vt 0.2225351 0.1469463

usemtl New Material 1
usemap New Material 1
f 2/2/2 3/3/3 1/1/1
f 5/5/5 4/4/4 6/6/6
f 8/8/8 9/9/9 7/7/7
f 11/11/11 10/10/10 12/12/12
f 14/14/14 15/15/15 13/13/13
f 17/17/17 16/16/16 18/18/18
f 20/20/20 21/21/21 19/19/19
f 23/23/23 22/22/22 24/24/24
f 26/26/26 27/27/27 25/25/25
f 29/29/29 28/28/28 30/30/30
f 32/32/32 33/33/33 31/31/31
f 35/35/35 34/34/34 36/36/36
f 38/38/38 39/39/39 37/37/37
f 41/41/41 40/40/40 42/42/42
f 44/44/44 45/45/45 43/43/43
f 47/47/47 46/46/46 48/48/48
f 50/50/50 51/51/51 49/49/49
f 53/53/53 52/52/52 54/54/54
f 56/56/56 57/57/57 55/55/55
f 59/59/59 58/58/58 60/60/60
