mtllib ./Boulder.mtl
g Boulder
v -0.2310172 0.254676 -0.6200702
v -0.1585294 0.4748761 -0.523114
v -0.3342558 0.4677713 -0.5435967
v -0.2360083 0.4545524 -0.5282047
v 0.1644221 0.2355046 -0.2424607
v -0.05822799 0.4308775 -0.0464119
v -0.008225679 0.4612886 -0.4018606
v 0.01468421 0.4501502 -0.2681704
v 0.1644221 0.2355046 -0.2424607
v -0.008225679 0.4612886 -0.4018606
v 0.0195266 0.366457 -0.5195718
v -0.04660063 0.4396546 -0.5012294
v 0.1644221 0.2355046 -0.2424607
v 0.0111702 0.1010236 -0.5360459
v 0.0195266 0.366457 -0.5195718
v 0.02787209 0.2313948 -0.535814
v 0.01468421 0.4501502 -0.2681704
v -0.2318797 0.5535035 -0.2748871
v -0.1585294 0.4748761 -0.523114
v -0.04660063 0.4396546 -0.5012294
v -0.2360083 0.4545524 -0.5282047
v -0.008225679 0.4612886 -0.4018606
v -0.2310172 0.254676 -0.6200702
v 0.02787209 0.2313948 -0.535814
v -0.1585294 0.4748761 -0.523114
v -0.04660063 0.4396546 -0.5012294
v 0.0195266 0.366457 -0.5195718
v -0.2201226 0.1826984 0.02819516
v -0.3789574 0.4860415 -0.08081626
v -0.1227675 0.4470266 -0.01446553
v -0.2477695 0.4658199 -7.267005E-05
v -0.2201226 0.1826984 0.02819516
v -0.1227675 0.4470266 -0.01446553
v -0.012925 0.3443482 -0.007156807
v -0.1042743 0.4163923 0.01228964
v -0.2201226 0.1826984 0.02819516
v 0 0.125 0
v -0.012925 0.3443482 -0.007156807
v -0.001517958 0.2500963 -2.655493E-07
v -0.2477695 0.4658199 -7.267005E-05
v -0.2318797 0.5535035 -0.2748871
v -0.05822799 0.4308775 -0.0464119
v 0.01468421 0.4501502 -0.2681704
v -0.1042743 0.4163923 0.01228964
v -0.1227675 0.4470266 -0.01446553
v 0.1644221 0.2355046 -0.2424607
v -0.001517958 0.2500963 -2.655493E-07
v -0.05822799 0.4308775 -0.0464119
v -0.1042743 0.4163923 0.01228964
v -0.012925 0.3443482 -0.007156807
v -0.600027 0.2729485 -0.2681564
v -0.4479406 0.39283 -0.5434006
v -0.4968077 0.4702812 -0.4018606
v -0.4041924 0.4688348 -0.4578505
v -0.600027 0.2729485 -0.2681564
v -0.4968077 0.4702812 -0.4018606
v -0.5 0.4599921 -0.1339535
v -0.4491254 0.5015216 -0.3513099
v -0.600027 0.2729485 -0.2681564
v -0.5 0.4599921 -0.1339535
v -0.5100052 0.4036543 -0.02713876
v -0.4525568 0.4477827 -0.08488809
v -0.600027 0.2729485 -0.2681564
v -0.5100052 0.4036543 -0.02713876
v -0.5 0.125 0
v -0.5366549 0.233005 0
v -0.600027 0.2729485 -0.2681564
v -0.4479406 0.39283 -0.5434006
v -0.486639 0.1204531 -0.5388834
v -0.4807481 0.2439243 -0.5683196
v -0.4807481 0.2439243 -0.5683196
v -0.2310172 0.254676 -0.6200702
v -0.3342558 0.4677713 -0.5435967
v -0.4041924 0.4688348 -0.4578505
v -0.4479406 0.39283 -0.5434006
v -0.2318797 0.5535035 -0.2748871
v -0.4491254 0.5015216 -0.3513099
v -0.3342558 0.4677713 -0.5435967
v -0.4041924 0.4688348 -0.4578505
v -0.2360083 0.4545524 -0.5282047
v -0.4968077 0.4702812 -0.4018606
v -0.2318797 0.5535035 -0.2748871
v -0.2477695 0.4658199 -7.267005E-05
v -0.3789574 0.4860415 -0.08081626
v -0.4491254 0.5015216 -0.3513099
v -0.4525568 0.4477827 -0.08488809
v -0.5 0.4599921 -0.1339535
v -0.2201226 0.1826984 0.02819516
v -0.5366549 0.233005 0
v -0.3789574 0.4860415 -0.08081626
v -0.4525568 0.4477827 -0.08488809
v -0.5100052 0.4036543 -0.02713876
v -0.2510042 -0.08121625 -0.2877227
v 0.007478791 0.007447656 -0.3786579
v -0.1470627 0.01027818 -0.5095136
v -0.008575364 0.02740951 -0.5101455
v -0.2510042 -0.08121625 -0.2877227
v -0.1470627 0.01027818 -0.5095136
v -0.3543222 0.009996668 -0.5339512
v -0.2506697 0.009996668 -0.5391027
v -0.2510042 -0.08121625 -0.2877227
v -0.125 -0.002910137 -0.004748344
v 0.0742408 -0.006712371 -0.09557133
v -0.001880591 0.06213834 -0.0242336
v -0.2510042 -0.08121625 -0.2877227
v 0.007478791 0.007447656 -0.3786579
v 0.0742408 -0.006712371 -0.09557133
v 0.0294029 -0.007513058 -0.2637717
v -0.2510042 -0.08121625 -0.2877227
v -0.3543222 0.009996668 -0.5339512
v -0.4797487 -0.02330285 -0.3818919
v -0.4378758 0.04504308 -0.4875881
v -0.2510042 -0.08121625 -0.2877227
v -0.4797487 -0.02330285 -0.3818919
v -0.4735188 0.040666 -0.1027003
v -0.5037192 0.01718736 -0.267907
v -0.2510042 -0.08121625 -0.2877227
v -0.125 -0.002910137 -0.004748344
v -0.375 0.01381314 0
v -0.25 0.01381314 0
v -0.2510042 -0.08121625 -0.2877227
v -0.375 0.01381314 0
v -0.4735188 0.040666 -0.1027003
v -0.4475487 0.060861 -0.002842551
v 0.0294029 -0.007513058 -0.2637717
v 0.1644221 0.2355046 -0.2424607
v 0.0111702 0.1010236 -0.5360459
v -0.008575364 0.02740951 -0.5101455
v 0.007478791 0.007447656 -0.3786579
v -0.2310172 0.254676 -0.6200702
v -0.2506697 0.009996668 -0.5391027
v 0.0111702 0.1010236 -0.5360459
v 0.02787209 0.2313948 -0.535814
v -0.008575364 0.02740951 -0.5101455
v -0.1470627 0.01027818 -0.5095136
v -0.25 0.01381314 0
v -0.2201226 0.1826984 0.02819516
v 0 0.125 0
v -0.001880591 0.06213834 -0.0242336
v -0.125 -0.002910137 -0.004748344
v -0.001517958 0.2500963 -2.655493E-07
v 0.1644221 0.2355046 -0.2424607
v 0 0.125 0
v 0.0294029 -0.007513058 -0.2637717
v -0.001880591 0.06213834 -0.0242336
v 0.0742408 -0.006712371 -0.09557133
v -0.2506697 0.009996668 -0.5391027
v -0.2310172 0.254676 -0.6200702
v -0.486639 0.1204531 -0.5388834
v -0.4807481 0.2439243 -0.5683196
v -0.4378758 0.04504308 -0.4875881
v -0.3543222 0.009996668 -0.5339512
v -0.600027 0.2729485 -0.2681564
v -0.5037192 0.01718736 -0.267907
v -0.486639 0.1204531 -0.5388834
v -0.4378758 0.04504308 -0.4875881
v -0.4797487 -0.02330285 -0.3818919
v -0.5366549 0.233005 0
v -0.2201226 0.1826984 0.02819516
v -0.5 0.125 0
v -0.25 0.01381314 0
v -0.4475487 0.060861 -0.002842551
v -0.375 0.01381314 0
v -0.5037192 0.01718736 -0.267907
v -0.600027 0.2729485 -0.2681564
v -0.5 0.125 0
v -0.4475487 0.060861 -0.002842551
v -0.4735188 0.040666 -0.1027003

vn 0.0442718 0.07937423 -0.9958613
vn 0.1229152 0.6295454 -0.7671795
vn -0.06134328 0.6587957 -0.7498168
vn 0.01893607 0.8111556 -0.5845237
vn 0.9869795 0.1603021 0.0132134
vn 0.644002 0.6990255 0.3108452
vn 0.683084 0.7105913 -0.1686902
vn 0.5396902 0.8318535 0.1294381
vn 0.9869795 0.1603021 0.0132134
vn 0.683084 0.7105913 -0.1686902
vn 0.7345108 0.3374349 -0.5887542
vn 0.4505756 0.7141046 -0.5357577
vn 0.9869795 0.1603021 0.0132134
vn 0.7331522 -0.3039755 -0.6083475
vn 0.7345108 0.3374349 -0.5887542
vn 0.5516123 0.03339503 -0.8334319
vn 0.5396902 0.8318535 0.1294381
vn 0.06656732 0.9976897 -0.01357304
vn 0.1229152 0.6295454 -0.7671795
vn 0.4505756 0.7141046 -0.5357577
vn 0.01893607 0.8111556 -0.5845237
vn 0.683084 0.7105913 -0.1686902
vn 0.0442718 0.07937423 -0.9958613
vn 0.5516123 0.03339503 -0.8334319
vn 0.1229152 0.6295454 -0.7671795
vn 0.4505756 0.7141046 -0.5357577
vn 0.7345108 0.3374349 -0.5887542
vn -0.00524429 0.05148719 0.9986598
vn -0.236783 0.5689734 0.7875298
vn 0.1482952 0.4310434 0.8900618
vn -0.04063733 0.7783412 0.626525
vn -0.00524429 0.05148719 0.9986598
vn 0.1482952 0.4310434 0.8900618
vn 0.3340608 0.2070581 0.9195272
vn 0.376729 0.5777884 0.7240413
vn -0.00524429 0.05148719 0.9986598
vn 0.385996 -0.05880624 0.9206241
vn 0.3340608 0.2070581 0.9195272
vn 0.6394712 0.06915978 0.7656981
vn -0.04063733 0.7783412 0.626525
vn 0.06656732 0.9976897 -0.01357304
vn 0.644002 0.6990255 0.3108452
vn 0.5396902 0.8318535 0.1294381
vn 0.376729 0.5777884 0.7240413
vn 0.1482952 0.4310434 0.8900618
vn 0.9869795 0.1603021 0.0132134
vn 0.6394712 0.06915978 0.7656981
vn 0.644002 0.6990255 0.3108452
vn 0.376729 0.5777884 0.7240413
vn 0.3340608 0.2070581 0.9195272
vn -0.9938336 0.08752509 -0.06807455
vn -0.6981509 0.3354599 -0.6324967
vn -0.6632118 0.729459 -0.1674501
vn -0.6023773 0.394103 -0.6941358
vn -0.9938336 0.08752509 -0.06807455
vn -0.6632118 0.729459 -0.1674501
vn -0.7011741 0.7078099 0.08579118
vn -0.4262896 0.8934498 -0.1415083
vn -0.9938336 0.08752509 -0.06807455
vn -0.7011741 0.7078099 0.08579118
vn -0.7180068 0.4105205 0.5620847
vn -0.3713651 0.8327248 0.4106793
vn -0.9938336 0.08752509 -0.06807455
vn -0.7180068 0.4105205 0.5620847
vn -0.7740786 -0.3402288 0.5338976
vn -0.4546404 0.04897258 0.8893277
vn -0.9938336 0.08752509 -0.06807455
vn -0.6981509 0.3354599 -0.6324967
vn -0.7639223 -0.2584116 -0.5913088
vn -0.4971555 0.04187065 -0.8666506
vn -0.4971555 0.04187065 -0.8666506
vn 0.0442718 0.07937423 -0.9958613
vn -0.06134328 0.6587957 -0.7498168
vn -0.6023773 0.394103 -0.6941358
vn -0.6981509 0.3354599 -0.6324967
vn 0.06656732 0.9976897 -0.01357304
vn -0.4262896 0.8934498 -0.1415083
vn -0.06134328 0.6587957 -0.7498168
vn -0.6023773 0.394103 -0.6941358
vn 0.01893607 0.8111556 -0.5845237
vn -0.6632118 0.729459 -0.1674501
vn 0.06656732 0.9976897 -0.01357304
vn -0.04063733 0.7783412 0.626525
vn -0.236783 0.5689734 0.7875298
vn -0.4262896 0.8934498 -0.1415083
vn -0.3713651 0.8327248 0.4106793
vn -0.7011741 0.7078099 0.08579118
vn -0.00524429 0.05148719 0.9986598
vn -0.4546404 0.04897258 0.8893277
vn -0.236783 0.5689734 0.7875298
vn -0.3713651 0.8327248 0.4106793
vn -0.7180068 0.4105205 0.5620847
vn -0.03847275 -0.9990872 -0.0185645
vn 0.4806041 -0.8443487 -0.2368436
vn 0.153571 -0.8199848 -0.5513991
vn 0.4694177 -0.6974478 -0.541492
vn -0.03847275 -0.9990872 -0.0185645
vn 0.153571 -0.8199848 -0.5513991
vn -0.1490679 -0.7888566 -0.5962249
vn 0.09390723 -0.5786984 -0.810117
vn -0.03847275 -0.9990872 -0.0185645
vn 0.04991582 -0.7749997 0.6299872
vn 0.5227764 -0.8243307 0.2172177
vn 0.3871389 -0.3757891 0.8419656
vn -0.03847275 -0.9990872 -0.0185645
vn 0.4806041 -0.8443487 -0.2368436
vn 0.5227764 -0.8243307 0.2172177
vn 0.7114576 -0.6732957 -0.2012485
vn -0.03847275 -0.9990872 -0.0185645
vn -0.1490679 -0.7888566 -0.5962249
vn -0.5517125 -0.8236455 -0.1312305
vn -0.514767 -0.6475348 -0.561884
vn -0.03847275 -0.9990872 -0.0185645
vn -0.5517125 -0.8236455 -0.1312305
vn -0.5872327 -0.7868769 0.1896906
vn -0.7980947 -0.5878847 0.1320471
vn -0.03847275 -0.9990872 -0.0185645
vn 0.04991582 -0.7749997 0.6299872
vn -0.1877122 -0.7870704 0.5876091
vn -0.01617984 -0.4885376 0.8723928
vn -0.03847275 -0.9990872 -0.0185645
vn -0.1877122 -0.7870704 0.5876091
vn -0.5872327 -0.7868769 0.1896906
vn -0.5311825 -0.5945197 0.6036486
vn 0.7114576 -0.6732957 -0.2012485
vn 0.9869795 0.1603021 0.0132134
vn 0.7331522 -0.3039755 -0.6083475
vn 0.4694177 -0.6974478 -0.541492
vn 0.4806041 -0.8443487 -0.2368436
vn 0.0442718 0.07937423 -0.9958613
vn 0.09390723 -0.5786984 -0.810117
vn 0.7331522 -0.3039755 -0.6083475
vn 0.5516123 0.03339503 -0.8334319
vn 0.4694177 -0.6974478 -0.541492
vn 0.153571 -0.8199848 -0.5513991
vn -0.01617984 -0.4885376 0.8723928
vn -0.00524429 0.05148719 0.9986598
vn 0.385996 -0.05880624 0.9206241
vn 0.3871389 -0.3757891 0.8419656
vn 0.04991582 -0.7749997 0.6299872
vn 0.6394712 0.06915978 0.7656981
vn 0.9869795 0.1603021 0.0132134
vn 0.385996 -0.05880624 0.9206241
vn 0.7114576 -0.6732957 -0.2012485
vn 0.3871389 -0.3757891 0.8419656
vn 0.5227764 -0.8243307 0.2172177
vn 0.09390723 -0.5786984 -0.810117
vn 0.0442718 0.07937423 -0.9958613
vn -0.7639223 -0.2584116 -0.5913088
vn -0.4971555 0.04187065 -0.8666506
vn -0.514767 -0.6475348 -0.561884
vn -0.1490679 -0.7888566 -0.5962249
vn -0.9938336 0.08752509 -0.06807455
vn -0.7980947 -0.5878847 0.1320471
vn -0.7639223 -0.2584116 -0.5913088
vn -0.514767 -0.6475348 -0.561884
vn -0.5517125 -0.8236455 -0.1312305
vn -0.4546404 0.04897258 0.8893277
vn -0.00524429 0.05148719 0.9986598
vn -0.7740786 -0.3402288 0.5338976
vn -0.01617984 -0.4885376 0.8723928
vn -0.5311825 -0.5945197 0.6036486
vn -0.1877122 -0.7870704 0.5876091
vn -0.7980947 -0.5878847 0.1320471
vn -0.9938336 0.08752509 -0.06807455
vn -0.7740786 -0.3402288 0.5338976
vn -0.5311825 -0.5945197 0.6036486
vn -0.5872327 -0.7868769 0.1896906

vt 0.5237783 0.4695191
vt 0.3715765 0.9272475
vt 0.7243266 0.9102144
vt 0.5268083 0.8863713
vt 0.5672037 0.4619301
vt 0.1270971 0.9001446
vt 0.8447512 0.958096
vt 0.5842994 0.9263434
vt 0.5672037 0.4619301
vt 0.8447512 0.958096
vt 1.084952 0.7663574
vt 1.033493 0.9277564
vt 0.5672037 0.4619301
vt 1.115791 0.2423976
vt 1.084952 0.7663574
vt 1.119121 0.4967885
vt 5.960464E-08 0.5511774
vt 0.5082335 0.5471612
vt 0.3492924 0.04330891
vt 0.1204699 0.08406132
vt 0.500454 0.0301435
vt 0.04747176 0.285271
vt 0.5237783 0.4695191
vt 0 0.4388311
vt 0.3715765 0.9272475
vt 0.1462243 0.8608952
vt 0.0154511 0.7109367
vt 0.6355513 0.3691637
vt 0.3012941 0.9802765
vt 0.8227256 0.9000878
vt 0.5758677 0.9364892
vt 0.6355513 0.3691637
vt 0.8227256 0.9000878
vt 1.042873 0.6948669
vt 0.8639174 0.837628
vt 0.6355513 0.3691637
vt 1.069796 0.2560046
vt 1.042873 0.6948669
vt 1.06677 0.5061192
vt 0.5257223 1.08588
vt 0.5082335 0.5471612
vt 0.1422283 0.9911445
vt 5.960464E-08 0.5511774
vt 0.2316755 1.106305
vt 0.2734972 1.056165
vt 0.5672037 0.4619301
vt 0.04774725 0.5258392
vt 0.1270971 0.9001446
vt 0 0.8813596
vt 0.05937839 0.7159016
vt 0.5983009 0.5497406
vt 0.0503875 0.8328543
vt 0.3326364 0.9711033
vt 0.2222167 0.9959934
vt 0.5983009 0.5497406
vt 0.3326364 0.9711033
vt 0.868378 0.9491322
vt 0.4345354 1.046974
vt 0.5983009 0.5497406
vt 0.868378 0.9491322
vt 1.081832 0.8344652
vt 0.9673026 0.9390071
vt 0.5983009 0.5497406
vt 1.081832 0.8344652
vt 1.136276 0.286298
vt 1.13566 0.4889671
vt 0.5983009 0.5497406
vt 0.0503875 0.8328543
vt 0.05877125 0.2826386
vt 0 0.528652
vt 1.018971 0.4609695
vt 0.5237783 0.4695191
vt 0.7243266 0.9102144
vt 0.8576174 0.9308685
vt 0.9515189 0.7621026
vt 0.5082335 0.5471612
vt 0.9328905 0.3867121
vt 0.6984438 0
vt 0.8380307 0.170698
vt 0.500454 0.0301435
vt 1.022888 0.2818142
vt 0.5082335 0.5471612
vt 0.5257223 1.08588
vt 0.7905098 0.9257303
vt 0.9328905 0.3867121
vt 0.9310362 0.912613
vt 1.027587 0.8155816
vt 0.6355513 0.3691637
vt 0 0.4698685
vt 0.3012941 0.9802765
vt 0.1539188 0.9036901
vt 0.04873645 0.8124712
vt 0.5124307 0.5067357
vt 1.02241 0.3204889
vt 0.7133311 0.05897641
vt 0.9888323 0.05670953
vt 0.5124307 0.5067357
vt 0.7133311 0.05897641
vt 0.2991228 0.0104748
vt 0.506283 0
vt 0.5124307 0.5067357
vt 0.7584113 1.068807
vt 1.156899 0.8870433
vt 0.9996173 1.026714
vt 0.5124307 0.5067357
vt 1.02241 0.3204889
vt 1.156899 0.8870433
vt 1.067345 0.5508391
vt 0.5124307 0.5067357
vt 0.2991228 0.0104748
vt 0.05093324 0.3162251
vt 0.1295133 0.1017418
vt 0.5124307 0.5067357
vt 0.05093324 0.3162251
vt 0.058604 0.8715792
vt 0 0.5423562
vt 0.5124307 0.5067357
vt 0.7584113 1.068807
vt 0.2575108 1.07797
vt 0.5073362 1.07776
vt 0.5124307 0.5067357
vt 0.2575108 1.07797
vt 0.058604 0.8715792
vt 0.108999 1.070292
vt 0.5789002 0.01461163
vt 0.5672037 0.4619301
vt 1.115791 0.2423976
vt 1.059842 0.1006125
vt 0.8022109 0.05315402
vt 0.5237783 0.4695191
vt 0.5569341 0
vt 0.03339744 0.1796123
vt 0 0.4388311
vt 0.07090223 0.03878599
vt 0.3476313 0.005943775
vt 0.5714329 0.03272423
vt 0.6355513 0.3691637
vt 1.069796 0.2560046
vt 1.062128 0.1314703
vt 0.8198466 0
vt 0.04774725 0.5258392
vt 0.5672037 0.4619301
vt 0.04809129 0.2772974
vt 0.5789002 0.01461163
vt 0.0958184 0.1537725
vt 0.2548518 0
vt 0.5569341 0
vt 0.5237783 0.4695191
vt 1.028519 0.2216111
vt 1.018971 0.4609695
vt 0.927184 0.08199543
vt 0.7637014 0.001902819
vt 0.5983009 0.5497406
vt 0.6004179 0.07264405
vt 0.05877125 0.2826386
vt 0.1621776 0.1479125
vt 0.372859 -5.960464E-08
vt 0 0.4698685
vt 0.6355513 0.3691637
vt 0.07306987 0.254063
vt 0.5714329 0.03272423
vt 0.1771694 0.1261618
vt 0.3222514 0.03223884
vt 0.6004179 0.07264405
vt 0.5983009 0.5497406
vt 1.136276 0.286298
vt 1.131472 0.1750971
vt 0.9313272 0.1276662

usemtl Default_Prototype
usemap Default_Prototype
f 2/2/2 1/1/1 4/4/4
f 1/1/1 3/3/3 4/4/4
f 6/6/6 5/5/5 8/8/8
f 5/5/5 7/7/7 8/8/8
f 10/10/10 9/9/9 11/11/11
f 10/10/10 11/11/11 12/12/12
f 13/13/13 14/14/14 16/16/16
f 15/15/15 13/13/13 16/16/16
f 18/18/18 19/19/19 21/21/21
f 18/18/18 17/17/17 22/22/22
f 19/19/19 18/18/18 22/22/22
f 20/20/20 19/19/19 22/22/22
f 24/24/24 23/23/23 27/27/27
f 23/23/23 25/25/25 27/27/27
f 25/25/25 26/26/26 27/27/27
f 29/29/29 28/28/28 31/31/31
f 28/28/28 30/30/30 31/31/31
f 33/33/33 32/32/32 34/34/34
f 33/33/33 34/34/34 35/35/35
f 36/36/36 37/37/37 39/39/39
f 38/38/38 36/36/36 39/39/39
f 41/41/41 42/42/42 43/43/43
f 41/41/41 40/40/40 45/45/45
f 42/42/42 41/41/41 45/45/45
f 44/44/44 42/42/42 45/45/45
f 47/47/47 46/46/46 50/50/50
f 46/46/46 48/48/48 50/50/50
f 48/48/48 49/49/49 50/50/50
f 52/52/52 51/51/51 53/53/53
f 52/52/52 53/53/53 54/54/54
f 56/56/56 55/55/55 58/58/58
f 55/55/55 57/57/57 58/58/58
f 60/60/60 59/59/59 61/61/61
f 60/60/60 61/61/61 62/62/62
f 64/64/64 63/63/63 66/66/66
f 63/63/63 65/65/65 66/66/66
f 67/67/67 68/68/68 70/70/70
f 69/69/69 67/67/67 70/70/70
f 72/72/72 71/71/71 75/75/75
f 73/73/73 72/72/72 75/75/75
f 74/74/74 73/73/73 75/75/75
f 78/78/78 76/76/76 80/80/80
f 77/77/77 76/76/76 81/81/81
f 76/76/76 78/78/78 81/81/81
f 78/78/78 79/79/79 81/81/81
f 83/83/83 82/82/82 84/84/84
f 84/84/84 82/82/82 87/87/87
f 82/82/82 85/85/85 87/87/87
f 86/86/86 84/84/84 87/87/87
f 89/89/89 88/88/88 92/92/92
f 88/88/88 90/90/90 92/92/92
f 90/90/90 91/91/91 92/92/92
f 94/94/94 93/93/93 95/95/95
f 94/94/94 95/95/95 96/96/96
f 98/98/98 97/97/97 100/100/100
f 97/97/97 99/99/99 100/100/100
f 102/102/102 101/101/101 103/103/103
f 102/102/102 103/103/103 104/104/104
f 105/105/105 106/106/106 108/108/108
f 107/107/107 105/105/105 108/108/108
f 110/110/110 109/109/109 111/111/111
f 110/110/110 111/111/111 112/112/112
f 114/114/114 113/113/113 116/116/116
f 113/113/113 115/115/115 116/116/116
f 117/117/117 118/118/118 120/120/120
f 119/119/119 117/117/117 120/120/120
f 121/121/121 122/122/122 123/123/123
f 123/123/123 122/122/122 124/124/124
f 126/126/126 125/125/125 129/129/129
f 127/127/127 126/126/126 129/129/129
f 128/128/128 127/127/127 129/129/129
f 132/132/132 130/130/130 133/133/133
f 131/131/131 130/130/130 135/135/135
f 130/130/130 132/132/132 135/135/135
f 132/132/132 134/134/134 135/135/135
f 137/137/137 136/136/136 140/140/140
f 138/138/138 137/137/137 140/140/140
f 139/139/139 138/138/138 140/140/140
f 142/142/142 141/141/141 143/143/143
f 142/142/142 143/143/143 146/146/146
f 144/144/144 142/142/142 146/146/146
f 143/143/143 145/145/145 146/146/146
f 148/148/148 149/149/149 150/150/150
f 148/148/148 147/147/147 152/152/152
f 149/149/149 148/148/148 152/152/152
f 151/151/151 149/149/149 152/152/152
f 154/154/154 153/153/153 157/157/157
f 153/153/153 155/155/155 157/157/157
f 155/155/155 156/156/156 157/157/157
f 159/159/159 158/158/158 160/160/160
f 159/159/159 160/160/160 163/163/163
f 161/161/161 159/159/159 163/163/163
f 160/160/160 162/162/162 163/163/163
f 165/165/165 164/164/164 168/168/168
f 166/166/166 165/165/165 168/168/168
f 167/167/167 166/166/166 168/168/168
