mtllib ./ShrubberyAttack.mtl
g pb-Pipe-524820
v -15.02998 0 2.241135E-05
v -15.98489 0 -2.938904
v -15.02998 5 2.241135E-05
v -15.98489 5 -2.938904
v -15.18489 0 -2.938904
v -14.38277 0 -0.4702058
v -15.18489 5 -2.938904
v -14.38277 5 -0.4702058
v -12.52998 0 1.816379
v -15.02998 0 2.241135E-05
v -12.52998 5 1.816379
v -15.02998 5 2.241135E-05
v -14.38277 0 -0.4702058
v -12.28277 0 1.055533
v -14.38277 5 -0.4702058
v -12.28277 5 1.055533
v -9.43981 0 1.816379
v -12.52998 0 1.816379
v -9.43981 5 1.816379
v -12.52998 5 1.816379
v -12.28277 0 1.055533
v -9.687023 0 1.055533
v -12.28277 5 1.055533
v -9.687023 5 1.055533
v -6.939809 0 2.217293E-05
v -9.43981 0 1.816379
v -6.939809 5 2.217293E-05
v -9.43981 5 1.816379
v -9.687023 0 1.055533
v -7.587023 0 -0.4702063
v -9.687023 5 1.055533
v -7.587023 5 -0.4702063
v -5.984895 0 -2.938904
v -6.939809 0 2.217293E-05
v -5.984895 5 -2.938904
v -6.939809 5 2.217293E-05
v -7.587023 0 -0.4702063
v -6.784895 0 -2.938904
v -7.587023 5 -0.4702063
v -6.784895 5 -2.938904
v -6.939809 0 -5.87783
v -5.984895 0 -2.938904
v -6.939809 5 -5.87783
v -5.984895 5 -2.938904
v -6.784895 0 -2.938904
v -7.587023 0 -5.407601
v -6.784895 5 -2.938904
v -7.587023 5 -5.407601
v -9.43981 0 -7.694186
v -6.939809 0 -5.87783
v -9.43981 5 -7.694186
v -6.939809 5 -5.87783
v -7.587023 0 -5.407601
v -9.687023 0 -6.933341
v -7.587023 5 -5.407601
v -9.687023 5 -6.933341
v -12.52998 0 -7.694186
v -9.43981 0 -7.694186
v -12.52998 5 -7.694186
v -9.43981 5 -7.694186
v -9.687023 0 -6.933341
v -12.28277 0 -6.933341
v -9.687023 5 -6.933341
v -12.28277 5 -6.933341
v -15.02998 0 -5.877831
v -12.52998 0 -7.694186
v -15.02998 5 -5.877831
v -12.52998 5 -7.694186
v -12.28277 0 -6.933341
v -14.38277 0 -5.407602
v -12.28277 5 -6.933341
v -14.38277 5 -5.407602
v -15.98489 0 -2.938904
v -15.02998 0 -5.877831
v -15.98489 5 -2.938904
v -15.02998 5 -5.877831
v -14.38277 0 -5.407602
v -15.18489 0 -2.938904
v -14.38277 5 -5.407602
v -15.18489 5 -2.938904
v -15.98489 0 -2.938904
v -15.02998 0 2.241135E-05
v -15.18489 0 -2.938904
v -14.38277 0 -0.4702058
v -15.02998 7 2.241135E-05
v -15.98489 7 -2.938904
v -14.38277 7 -0.4702058
v -15.18489 7 -2.938904
v -15.02998 0 2.241135E-05
v -12.52998 0 1.816379
v -14.38277 0 -0.4702058
v -12.28277 0 1.055533
v -12.52998 7 1.816379
v -15.02998 7 2.241135E-05
v -12.28277 7 1.055533
v -14.38277 7 -0.4702058
v -12.52998 0 1.816379
v -9.43981 0 1.816379
v -12.28277 0 1.055533
v -9.687023 0 1.055533
v -9.43981 7 1.816379
v -12.52998 7 1.816379
v -9.687023 7 1.055533
v -12.28277 7 1.055533
v -9.43981 0 1.816379
v -6.939809 0 2.217293E-05
v -9.687023 0 1.055533
v -7.587023 0 -0.4702063
v -6.939809 7 2.217293E-05
v -9.43981 7 1.816379
v -7.587023 7 -0.4702063
v -9.687023 7 1.055533
v -6.939809 0 2.217293E-05
v -5.984895 0 -2.938904
v -7.587023 0 -0.4702063
v -6.784895 0 -2.938904
v -5.984895 7 -2.938904
v -6.939809 7 2.217293E-05
v -6.784895 7 -2.938904
v -7.587023 7 -0.4702063
v -5.984895 0 -2.938904
v -6.939809 0 -5.87783
v -6.784895 0 -2.938904
v -7.587023 0 -5.407601
v -6.939809 7 -5.87783
v -5.984895 7 -2.938904
v -7.587023 7 -5.407601
v -6.784895 7 -2.938904
v -6.939809 0 -5.87783
v -9.43981 0 -7.694186
v -7.587023 0 -5.407601
v -9.687023 0 -6.933341
v -9.43981 7 -7.694186
v -6.939809 7 -5.87783
v -9.687023 7 -6.933341
v -7.587023 7 -5.407601
v -9.43981 0 -7.694186
v -12.52998 0 -7.694186
v -9.687023 0 -6.933341
v -12.28277 0 -6.933341
v -12.52998 7 -7.694186
v -9.43981 7 -7.694186
v -12.28277 7 -6.933341
v -9.687023 7 -6.933341
v -12.52998 0 -7.694186
v -15.02998 0 -5.877831
v -12.28277 0 -6.933341
v -14.38277 0 -5.407602
v -15.02998 7 -5.877831
v -12.52998 7 -7.694186
v -14.38277 7 -5.407602
v -12.28277 7 -6.933341
v -15.02998 0 -5.877831
v -15.98489 0 -2.938904
v -14.38277 0 -5.407602
v -15.18489 0 -2.938904
v -15.98489 7 -2.938904
v -15.02998 7 -5.877831
v -15.18489 7 -2.938904
v -14.38277 7 -5.407602
v -12.52998 5 -7.694186
v -9.43981 5 -7.694186
v -12.52998 7 -7.694186
v -9.43981 7 -7.694186
v -12.28277 5 -6.933341
v -12.52998 5 -7.694186
v -12.28277 7 -6.933341
v -12.52998 7 -7.694186
v -9.43981 5 -7.694186
v -9.687023 5 -6.933341
v -9.43981 7 -7.694186
v -9.687023 7 -6.933341
v -9.687023 5 -6.933341
v -12.28277 5 -6.933341
v -9.687023 7 -6.933341
v -12.28277 7 -6.933341
v -9.43981 5 -7.694186
v -6.939809 5 -5.87783
v -9.43981 7 -7.694186
v -6.939809 7 -5.87783
v -9.687023 5 -6.933341
v -9.43981 5 -7.694186
v -9.687023 7 -6.933341
v -9.43981 7 -7.694186
v -6.939809 5 -5.87783
v -7.587023 5 -5.407601
v -6.939809 7 -5.87783
v -7.587023 7 -5.407601
v -7.587023 5 -5.407601
v -9.687023 5 -6.933341
v -7.587023 7 -5.407601
v -9.687023 7 -6.933341
v -6.939809 5 -5.87783
v -5.984895 5 -2.938904
v -6.939809 7 -5.87783
v -5.984895 7 -2.938904
v -7.587023 5 -5.407601
v -6.939809 5 -5.87783
v -7.587023 7 -5.407601
v -6.939809 7 -5.87783
v -5.984895 5 -2.938904
v -6.784895 5 -2.938904
v -5.984895 7 -2.938904
v -6.784895 7 -2.938904
v -6.784895 5 -2.938904
v -7.587023 5 -5.407601
v -6.784895 7 -2.938904
v -7.587023 7 -5.407601
v -5.984895 5 -2.938904
v -6.939809 5 2.217293E-05
v -5.984895 7 -2.938904
v -6.939809 7 2.217293E-05
v -6.784895 5 -2.938904
v -5.984895 5 -2.938904
v -6.784895 7 -2.938904
v -5.984895 7 -2.938904
v -6.939809 5 2.217293E-05
v -7.587023 5 -0.4702063
v -6.939809 7 2.217293E-05
v -7.587023 7 -0.4702063
v -7.587023 5 -0.4702063
v -6.784895 5 -2.938904
v -7.587023 7 -0.4702063
v -6.784895 7 -2.938904
v -6.939809 5 2.217293E-05
v -9.43981 5 1.816379
v -6.939809 7 2.217293E-05
v -9.43981 7 1.816379
v -7.587023 5 -0.4702063
v -6.939809 5 2.217293E-05
v -7.587023 7 -0.4702063
v -6.939809 7 2.217293E-05
v -9.43981 5 1.816379
v -9.687023 5 1.055533
v -9.43981 7 1.816379
v -9.687023 7 1.055533
v -9.687023 5 1.055533
v -7.587023 5 -0.4702063
v -9.687023 7 1.055533
v -7.587023 7 -0.4702063
v -9.43981 5 1.816379
v -12.52998 5 1.816379
v -9.43981 7 1.816379
v -12.52998 7 1.816379
v -9.687023 5 1.055533
v -9.43981 5 1.816379
v -9.687023 7 1.055533
v -9.43981 7 1.816379
v -12.52998 5 1.816379
v -12.28277 5 1.055533
v -12.52998 7 1.816379
v -12.28277 7 1.055533
v -12.28277 5 1.055533
v -9.687023 5 1.055533
v -12.28277 7 1.055533
v -9.687023 7 1.055533
v -12.52998 5 1.816379
v -15.02998 5 2.241135E-05
v -12.52998 7 1.816379
v -15.02998 7 2.241135E-05
v -12.28277 5 1.055533
v -12.52998 5 1.816379
v -12.28277 7 1.055533
v -12.52998 7 1.816379
v -15.02998 5 2.241135E-05
v -14.38277 5 -0.4702058
v -15.02998 7 2.241135E-05
v -14.38277 7 -0.4702058
v -14.38277 5 -0.4702058
v -12.28277 5 1.055533
v -14.38277 7 -0.4702058
v -12.28277 7 1.055533
v -15.02998 5 2.241135E-05
v -15.98489 5 -2.938904
v -15.02998 7 2.241135E-05
v -15.98489 7 -2.938904
v -14.38277 5 -0.4702058
v -15.02998 5 2.241135E-05
v -14.38277 7 -0.4702058
v -15.02998 7 2.241135E-05
v -15.98489 5 -2.938904
v -15.18489 5 -2.938904
v -15.98489 7 -2.938904
v -15.18489 7 -2.938904
v -15.18489 5 -2.938904
v -14.38277 5 -0.4702058
v -15.18489 7 -2.938904
v -14.38277 7 -0.4702058
v -15.98489 5 -2.938904
v -15.02998 5 -5.877831
v -15.98489 7 -2.938904
v -15.02998 7 -5.877831
v -15.18489 5 -2.938904
v -15.98489 5 -2.938904
v -15.18489 7 -2.938904
v -15.98489 7 -2.938904
v -15.02998 5 -5.877831
v -14.38277 5 -5.407602
v -15.02998 7 -5.877831
v -14.38277 7 -5.407602
v -14.38277 5 -5.407602
v -15.18489 5 -2.938904
v -14.38277 7 -5.407602
v -15.18489 7 -2.938904
v -15.02998 5 -5.877831
v -12.52998 5 -7.694186
v -15.02998 7 -5.877831
v -12.52998 7 -7.694186
v -14.38277 5 -5.407602
v -15.02998 5 -5.877831
v -14.38277 7 -5.407602
v -15.02998 7 -5.877831
v -12.52998 5 -7.694186
v -12.28277 5 -6.933341
v -12.52998 7 -7.694186
v -12.28277 7 -6.933341
v -12.28277 5 -6.933341
v -14.38277 5 -5.407602
v -12.28277 7 -6.933341
v -14.38277 7 -5.407602

vn -0.9510565 0 0.309017
vn -0.9510565 0 0.309017
vn -0.9510565 0 0.309017
vn -0.9510565 0 0.309017
vn 0.9510565 0 -0.309017
vn 0.9510565 0 -0.309017
vn 0.9510565 0 -0.309017
vn 0.9510565 0 -0.309017
vn -0.5877853 0 0.8090169
vn -0.5877853 0 0.8090169
vn -0.5877853 0 0.8090169
vn -0.5877853 0 0.8090169
vn 0.5877852 0 -0.809017
vn 0.5877852 0 -0.809017
vn 0.5877852 0 -0.809017
vn 0.5877852 0 -0.809017
vn 0 0 1
vn 0 0 1
vn 0 0 1
vn 0 0 1
vn 0 0 -1
vn 0 0 -1
vn 0 0 -1
vn 0 0 -1
vn 0.5877852 0 0.8090171
vn 0.5877852 0 0.8090171
vn 0.5877852 0 0.8090171
vn 0.5877852 0 0.8090171
vn -0.5877852 0 -0.8090169
vn -0.5877852 0 -0.8090169
vn -0.5877852 0 -0.8090169
vn -0.5877852 0 -0.8090169
vn 0.9510566 0 0.3090167
vn 0.9510566 0 0.3090167
vn 0.9510566 0 0.3090167
vn 0.9510566 0 0.3090167
vn -0.9510565 0 -0.3090169
vn -0.9510565 0 -0.3090169
vn -0.9510565 0 -0.3090169
vn -0.9510565 0 -0.3090169
vn 0.9510566 0 -0.3090169
vn 0.9510566 0 -0.3090169
vn 0.9510566 0 -0.3090169
vn 0.9510566 0 -0.3090169
vn -0.9510565 0 0.309017
vn -0.9510565 0 0.309017
vn -0.9510565 0 0.309017
vn -0.9510565 0 0.309017
vn 0.5877852 0 -0.8090169
vn 0.5877852 0 -0.8090169
vn 0.5877852 0 -0.8090169
vn 0.5877852 0 -0.8090169
vn -0.5877854 0 0.8090169
vn -0.5877854 0 0.8090169
vn -0.5877854 0 0.8090169
vn -0.5877854 0 0.8090169
vn 0 0 -1
vn 0 0 -1
vn 0 0 -1
vn 0 0 -1
vn 0 0 1
vn 0 0 1
vn 0 0 1
vn 0 0 1
vn -0.5877852 0 -0.8090171
vn -0.5877852 0 -0.8090171
vn -0.5877852 0 -0.8090171
vn -0.5877852 0 -0.8090171
vn 0.5877852 0 0.8090169
vn 0.5877852 0 0.8090169
vn 0.5877852 0 0.8090169
vn 0.5877852 0 0.8090169
vn -0.9510565 0 -0.309017
vn -0.9510565 0 -0.309017
vn -0.9510565 0 -0.309017
vn -0.9510565 0 -0.309017
vn 0.9510565 0 0.309017
vn 0.9510565 0 0.309017
vn 0.9510565 0 0.309017
vn 0.9510565 0 0.309017
vn 0 -1 0
vn 0 -1 0
vn 0 -1 0
vn 0 -1 0
vn 0 1 0
vn 0 1 0
vn 0 1 0
vn 0 1 0
vn 0 -1 0
vn 0 -1 0
vn 0 -1 0
vn 0 -1 0
vn 0 1 0
vn 0 1 0
vn 0 1 0
vn 0 1 0
vn 0 -1 0
vn 0 -1 0
vn 0 -1 0
vn 0 -1 0
vn 0 1 0
vn 0 1 0
vn 0 1 0
vn 0 1 0
vn 0 -1 0
vn 0 -1 0
vn 0 -1 0
vn 0 -1 0
vn 0 1 0
vn 0 1 0
vn 0 1 0
vn 0 1 0
vn 0 -1 0
vn 0 -1 0
vn 0 -1 0
vn 0 -1 0
vn 0 1 0
vn 0 1 0
vn 0 1 0
vn 0 1 0
vn 0 -1 0
vn 0 -1 0
vn 0 -1 0
vn 0 -1 0
vn 0 1 0
vn 0 1 0
vn 0 1 0
vn 0 1 0
vn 0 -1 0
vn 0 -1 0
vn 0 -1 0
vn 0 -1 0
vn 0 1 0
vn 0 1 0
vn 0 1 0
vn 0 1 0
vn 0 -1 0
vn 0 -1 0
vn 0 -1 0
vn 0 -1 0
vn 0 1 0
vn 0 1 0
vn 0 1 0
vn 0 1 0
vn 0 -1 0
vn 0 -1 0
vn 0 -1 0
vn 0 -1 0
vn 0 1 0
vn 0 1 0
vn 0 1 0
vn 0 1 0
vn 0 -1 0
vn 0 -1 0
vn 0 -1 0
vn 0 -1 0
vn 0 1 0
vn 0 1 0
vn 0 1 0
vn 0 1 0
vn 0 0 -1
vn 0 0 -1
vn 0 0 -1
vn 0 0 -1
vn -0.9510564 0 0.3090173
vn -0.9510564 0 0.3090173
vn -0.9510564 0 0.3090173
vn -0.9510564 0 0.3090173
vn 0.9510564 0 0.3090173
vn 0.9510564 0 0.3090173
vn 0.9510564 0 0.3090173
vn 0.9510564 0 0.3090173
vn 0 0 1
vn 0 0 1
vn 0 0 1
vn 0 0 1
vn 0.5877852 0 -0.809017
vn 0.5877852 0 -0.809017
vn 0.5877852 0 -0.809017
vn 0.5877852 0 -0.809017
vn -0.9510564 0 -0.3090173
vn -0.9510564 0 -0.3090173
vn -0.9510564 0 -0.3090173
vn -0.9510564 0 -0.3090173
vn 0.5877848 0 0.8090173
vn 0.5877848 0 0.8090173
vn 0.5877848 0 0.8090173
vn 0.5877848 0 0.8090173
vn -0.5877854 0 0.8090169
vn -0.5877854 0 0.8090169
vn -0.5877854 0 0.8090169
vn -0.5877854 0 0.8090169
vn 0.9510566 0 -0.3090168
vn 0.9510566 0 -0.3090168
vn 0.9510566 0 -0.3090168
vn 0.9510566 0 -0.3090168
vn -0.5877848 0 -0.8090173
vn -0.5877848 0 -0.8090173
vn -0.5877848 0 -0.8090173
vn -0.5877848 0 -0.8090173
vn 0 0 1
vn 0 0 1
vn 0 0 1
vn 0 0 1
vn -0.9510565 0 0.309017
vn -0.9510565 0 0.309017
vn -0.9510565 0 0.309017
vn -0.9510565 0 0.309017
vn 0.9510565 0 0.3090167
vn 0.9510565 0 0.3090167
vn 0.9510565 0 0.3090167
vn 0.9510565 0 0.3090167
vn 0 0 -1
vn 0 0 -1
vn 0 0 -1
vn 0 0 -1
vn -0.587785 0 0.8090172
vn -0.587785 0 0.8090172
vn -0.587785 0 0.8090172
vn -0.587785 0 0.8090172
vn -0.9510565 0 -0.3090169
vn -0.9510565 0 -0.3090169
vn -0.9510565 0 -0.3090169
vn -0.9510565 0 -0.3090169
vn 0.5877852 0 0.809017
vn 0.5877852 0 0.809017
vn 0.5877852 0 0.809017
vn 0.5877852 0 0.809017
vn 0.587785 0 -0.8090172
vn 0.587785 0 -0.8090172
vn 0.587785 0 -0.8090172
vn 0.587785 0 -0.8090172
vn -0.9510565 0 0.3090171
vn -0.9510565 0 0.3090171
vn -0.9510565 0 0.3090171
vn -0.9510565 0 0.3090171
vn -0.5877853 0 -0.809017
vn -0.5877853 0 -0.809017
vn -0.5877853 0 -0.809017
vn -0.5877853 0 -0.809017
vn 0 0 0.9999999
vn 0 0 0.9999999
vn 0 0 0.9999999
vn 0 0 0.9999999
vn 0.9510565 0 -0.3090171
vn 0.9510565 0 -0.3090171
vn 0.9510565 0 -0.3090171
vn 0.9510565 0 -0.3090171
vn -0.9510565 0 -0.3090171
vn -0.9510565 0 -0.3090171
vn -0.9510565 0 -0.3090171
vn -0.9510565 0 -0.3090171
vn 0 0 -1
vn 0 0 -1
vn 0 0 -1
vn 0 0 -1
vn -0.5877854 0 0.8090169
vn -0.5877854 0 0.8090169
vn -0.5877854 0 0.8090169
vn -0.5877854 0 0.8090169
vn 0.9510565 0 0.3090171
vn 0.9510565 0 0.3090171
vn 0.9510565 0 0.3090171
vn 0.9510565 0 0.3090171
vn -0.5877852 0 -0.8090171
vn -0.5877852 0 -0.8090171
vn -0.5877852 0 -0.8090171
vn -0.5877852 0 -0.8090171
vn 0.5877852 0 -0.8090171
vn 0.5877852 0 -0.8090171
vn 0.5877852 0 -0.8090171
vn 0.5877852 0 -0.8090171
vn -0.9510565 0 0.309017
vn -0.9510565 0 0.309017
vn -0.9510565 0 0.309017
vn -0.9510565 0 0.309017
vn 0.5877852 0 0.8090171
vn 0.5877852 0 0.8090171
vn 0.5877852 0 0.8090171
vn 0.5877852 0 0.8090171
vn 0 0 -1
vn 0 0 -1
vn 0 0 -1
vn 0 0 -1
vn 0.9510565 0 -0.309017
vn 0.9510565 0 -0.309017
vn 0.9510565 0 -0.309017
vn 0.9510565 0 -0.309017
vn -0.9510565 0 -0.309017
vn -0.9510565 0 -0.309017
vn -0.9510565 0 -0.309017
vn -0.9510565 0 -0.309017
vn 0 0 1
vn 0 0 1
vn 0 0 1
vn 0 0 1
vn 0.587785 0 -0.8090171
vn 0.587785 0 -0.8090171
vn 0.587785 0 -0.8090171
vn 0.587785 0 -0.8090171
vn 0.9510565 0 0.309017
vn 0.9510565 0 0.309017
vn 0.9510565 0 0.309017
vn 0.9510565 0 0.309017
vn -0.5877852 0 -0.8090171
vn -0.5877852 0 -0.8090171
vn -0.5877852 0 -0.8090171
vn -0.5877852 0 -0.8090171
vn -0.587785 0 0.8090171
vn -0.587785 0 0.8090171
vn -0.587785 0 0.8090171
vn -0.587785 0 0.8090171
vn 0.9510564 0 -0.3090173
vn 0.9510564 0 -0.3090173
vn 0.9510564 0 -0.3090173
vn 0.9510564 0 -0.3090173
vn 0.5877852 0 0.809017
vn 0.5877852 0 0.809017
vn 0.5877852 0 0.809017
vn 0.5877852 0 0.809017

vt 3.09017 0
vt 0 0
vt 3.09017 5
vt 0 5
vt 2.595743 0
vt -1.192093E-07 0
vt 2.595743 5
vt -1.192093E-07 5
vt 3.09017 0
vt 0 0
vt 3.09017 5
vt 0 5
vt 2.595743 0
vt 0 0
vt 2.595743 5
vt 0 5
vt 3.09017 0
vt 0 0
vt 3.09017 5
vt 0 5
vt 2.595742 0
vt 0 0
vt 2.595742 5
vt 0 5
vt 3.090171 0
vt -2.384186E-07 0
vt 3.090171 5
vt -2.384186E-07 5
vt 2.595743 0
vt 0 0
vt 2.595743 5
vt 0 5
vt 3.09017 0
vt 2.384186E-07 0
vt 3.09017 5
vt 2.384186E-07 5
vt 2.595743 0
vt 4.768372E-07 0
vt 2.595743 5
vt 4.768372E-07 5
vt 3.090169 0
vt 0 0
vt 3.090169 5
vt 0 5
vt 2.595742 0
vt 0 0
vt 2.595742 5
vt 0 5
vt 3.09017 0
vt 0 0
vt 3.09017 5
vt 0 5
vt 2.595743 0
vt 0 0
vt 2.595743 5
vt 0 5
vt 3.090171 0
vt 0 0
vt 3.090171 5
vt 0 5
vt 2.595743 0
vt -2.384186E-07 0
vt 2.595743 5
vt -2.384186E-07 5
vt 3.090169 0
vt 0 0
vt 3.090169 5
vt 0 5
vt 2.595742 0
vt 2.384186E-07 0
vt 2.595742 5
vt 2.384186E-07 5
vt 3.09017 0
vt 0 0
vt 3.09017 5
vt 0 5
vt 2.595743 0
vt 0 0
vt 2.595743 5
vt 0 5
vt 0 0
vt 0.954915 2.938926
vt 0.8000002 0
vt 1.602129 2.468698
vt 0.6472137 2.938926
vt 1.602129 0
vt 0 2.468698
vt 0.8021286 0
vt 0 0.4702282
vt 2.5 2.286585
vt 0.6472137 0
vt 2.747214 1.525739
vt 0.2472138 2.286585
vt 2.747214 0.4702282
vt 0 1.525739
vt 2.1 0
vt 0 0.7608457
vt 3.09017 0.7608457
vt 0.2472138 0
vt 2.842956 0
vt 0 0.7608457
vt 3.09017 0.7608457
vt 0.2472138 0
vt 2.842956 0
vt 0.2472143 2.286585
vt 2.747215 0.4702284
vt 4.768372E-07 1.52574
vt 2.100001 0
vt 0 0.4702284
vt 2.500001 2.286585
vt 0.6472144 0
vt 2.747215 1.52574
vt 0.6472149 2.938926
vt 1.602129 0
vt 4.768372E-07 2.468698
vt 0.8021288 0
vt 0 0
vt 0.9549141 2.938926
vt 0.8000002 0
vt 1.602129 2.468698
vt 1.602129 2.938925
vt 0.6472149 0
vt 0.8021288 2.938925
vt 4.768372E-07 0.4702282
vt 0.9549141 0
vt 0 2.938925
vt 1.602129 0.4702282
vt 0.8000002 2.938925
vt 2.747214 1.816357
vt 0.2472138 0
vt 2.1 2.286585
vt 0 0.7608452
vt 2.5 0
vt 0 1.816357
vt 2.747214 0.7608452
vt 0.6472144 2.286585
vt 3.090171 0
vt -2.384186E-07 0
vt 2.842957 0.7608452
vt 0.2472136 0.7608452
vt 3.090171 0
vt 0 0
vt 2.842957 0.7608452
vt 0.2472138 0.7608452
vt 2.499999 0
vt 0 1.816356
vt 2.747213 0.7608452
vt 0.6472139 2.286584
vt 2.747213 1.816356
vt 0.2472138 0
vt 2.099999 2.286584
vt 0 0.7608452
vt 0.954915 0
vt 0 2.938927
vt 1.602129 0.4702282
vt 0.8000002 2.938927
vt 1.602129 2.938927
vt 0.6472139 0
vt 0.8021288 2.938927
vt 0 0.4702282
vt 3.090171 0
vt 0 0
vt 3.090171 2
vt 0 2
vt 0.7999992 0
vt -4.768372E-07 0
vt 0.7999992 2
vt -4.768372E-07 2
vt 0.7999992 0
vt -9.536743E-07 0
vt 0.7999992 2
vt -9.536743E-07 2
vt 2.595743 0
vt -2.384186E-07 0
vt 2.595743 2
vt -2.384186E-07 2
vt 3.090171 0
vt 0 0
vt 3.090171 2
vt 0 2
vt 0.8000002 0
vt 0 0
vt 0.8000002 2
vt 0 2
vt 0.8000011 0
vt 0 0
vt 0.8000011 2
vt 0 2
vt 2.595743 0
vt 0 0
vt 2.595743 2
vt 0 2
vt 3.090169 0
vt 0 0
vt 3.090169 2
vt 0 2
vt 0.8000011 0
vt 0 0
vt 0.8000011 2
vt 0 2
vt 0.7999992 0
vt -9.536743E-07 0
vt 0.7999992 2
vt -9.536743E-07 2
vt 2.595742 0
vt 0 0
vt 2.595742 2
vt 0 2
vt 3.09017 0
vt 2.384186E-07 0
vt 3.09017 2
vt 2.384186E-07 2
vt 0.8000002 0
vt 0 0
vt 0.8000002 2
vt 0 2
vt 0.8000007 0
vt 0 0
vt 0.8000007 2
vt 0 2
vt 2.595743 0
vt 4.768372E-07 0
vt 2.595743 2
vt 4.768372E-07 2
vt 3.090171 0
vt 0 0
vt 3.090171 2
vt 0 2
vt 0.8000011 0
vt 4.768372E-07 0
vt 0.8000011 2
vt 4.768372E-07 2
vt 0.8000004 0
vt 0 0
vt 0.8000004 2
vt 0 2
vt 2.595743 0
vt 0 0
vt 2.595743 2
vt 0 2
vt 3.09017 0
vt 0 0
vt 3.09017 2
vt 0 2
vt 0.8000002 0
vt -2.384186E-07 0
vt 0.8000002 2
vt -2.384186E-07 2
vt 0.8000004 0
vt 0 0
vt 0.8000004 2
vt 0 2
vt 2.595742 0
vt 0 0
vt 2.595742 2
vt 0 2
vt 3.09017 0
vt 0 0
vt 3.09017 2
vt 0 2
vt 0.8000005 0
vt 0 0
vt 0.8000005 2
vt 0 2
vt 0.8000001 0
vt 0 0
vt 0.8000001 2
vt 0 2
vt 2.595743 0
vt 0 0
vt 2.595743 2
vt 0 2
vt 3.09017 0
vt 0 0
vt 3.09017 2
vt 0 2
vt 0.8000001 0
vt 0 0
vt 0.8000001 2
vt 0 2
vt 0.8000002 0
vt 0 0
vt 0.8000002 2
vt 0 2
vt 2.595743 0
vt -1.192093E-07 0
vt 2.595743 2
vt -1.192093E-07 2
vt 3.09017 0
vt 0 0
vt 3.09017 2
vt 0 2
vt 0.8000002 0
vt 0 0
vt 0.8000002 2
vt 0 2
vt 0.8000002 0
vt 0 0
vt 0.8000002 2
vt 0 2
vt 2.595743 0
vt 0 0
vt 2.595743 2
vt 0 2
vt 3.090169 0
vt 0 0
vt 3.090169 2
vt 0 2
vt 0.8000002 0
vt 0 0
vt 0.8000002 2
vt 0 2
vt 0.7999997 0
vt 0 0
vt 0.7999997 2
vt 0 2
vt 2.595742 0
vt 2.384186E-07 0
vt 2.595742 2
vt 2.384186E-07 2

usemtl Default_Prototype
usemap Default_Prototype
f 2/2/2 1/1/1 3/3/3
f 4/4/4 2/2/2 3/3/3
f 6/6/6 5/5/5 7/7/7
f 8/8/8 6/6/6 7/7/7
f 10/10/10 9/9/9 11/11/11
f 12/12/12 10/10/10 11/11/11
f 14/14/14 13/13/13 15/15/15
f 16/16/16 14/14/14 15/15/15
f 18/18/18 17/17/17 19/19/19
f 20/20/20 18/18/18 19/19/19
f 22/22/22 21/21/21 23/23/23
f 24/24/24 22/22/22 23/23/23
f 26/26/26 25/25/25 27/27/27
f 28/28/28 26/26/26 27/27/27
f 30/30/30 29/29/29 31/31/31
f 32/32/32 30/30/30 31/31/31
f 34/34/34 33/33/33 35/35/35
f 36/36/36 34/34/34 35/35/35
f 38/38/38 37/37/37 39/39/39
f 40/40/40 38/38/38 39/39/39
f 42/42/42 41/41/41 43/43/43
f 44/44/44 42/42/42 43/43/43
f 46/46/46 45/45/45 47/47/47
f 48/48/48 46/46/46 47/47/47
f 50/50/50 49/49/49 51/51/51
f 52/52/52 50/50/50 51/51/51
f 54/54/54 53/53/53 55/55/55
f 56/56/56 54/54/54 55/55/55
f 58/58/58 57/57/57 59/59/59
f 60/60/60 58/58/58 59/59/59
f 62/62/62 61/61/61 63/63/63
f 64/64/64 62/62/62 63/63/63
f 66/66/66 65/65/65 67/67/67
f 68/68/68 66/66/66 67/67/67
f 70/70/70 69/69/69 71/71/71
f 72/72/72 70/70/70 71/71/71
f 74/74/74 73/73/73 75/75/75
f 76/76/76 74/74/74 75/75/75
f 78/78/78 77/77/77 79/79/79
f 80/80/80 78/78/78 79/79/79
f 82/82/82 81/81/81 83/83/83
f 84/84/84 82/82/82 83/83/83
f 86/86/86 85/85/85 87/87/87
f 88/88/88 86/86/86 87/87/87
f 90/90/90 89/89/89 91/91/91
f 92/92/92 90/90/90 91/91/91
f 94/94/94 93/93/93 95/95/95
f 96/96/96 94/94/94 95/95/95
f 98/98/98 97/97/97 99/99/99
f 100/100/100 98/98/98 99/99/99
f 102/102/102 101/101/101 103/103/103
f 104/104/104 102/102/102 103/103/103
f 106/106/106 105/105/105 107/107/107
f 108/108/108 106/106/106 107/107/107
f 110/110/110 109/109/109 111/111/111
f 112/112/112 110/110/110 111/111/111
f 114/114/114 113/113/113 115/115/115
f 116/116/116 114/114/114 115/115/115
f 118/118/118 117/117/117 119/119/119
f 120/120/120 118/118/118 119/119/119
f 122/122/122 121/121/121 123/123/123
f 124/124/124 122/122/122 123/123/123
f 126/126/126 125/125/125 127/127/127
f 128/128/128 126/126/126 127/127/127
f 130/130/130 129/129/129 131/131/131
f 132/132/132 130/130/130 131/131/131
f 134/134/134 133/133/133 135/135/135
f 136/136/136 134/134/134 135/135/135
f 138/138/138 137/137/137 139/139/139
f 140/140/140 138/138/138 139/139/139
f 142/142/142 141/141/141 143/143/143
f 144/144/144 142/142/142 143/143/143
f 146/146/146 145/145/145 147/147/147
f 148/148/148 146/146/146 147/147/147
f 150/150/150 149/149/149 151/151/151
f 152/152/152 150/150/150 151/151/151
f 154/154/154 153/153/153 155/155/155
f 156/156/156 154/154/154 155/155/155
f 158/158/158 157/157/157 159/159/159
f 160/160/160 158/158/158 159/159/159
f 162/162/162 161/161/161 163/163/163
f 164/164/164 162/162/162 163/163/163
f 166/166/166 165/165/165 167/167/167
f 168/168/168 166/166/166 167/167/167
f 170/170/170 169/169/169 171/171/171
f 172/172/172 170/170/170 171/171/171
f 174/174/174 173/173/173 175/175/175
f 176/176/176 174/174/174 175/175/175
f 178/178/178 177/177/177 179/179/179
f 180/180/180 178/178/178 179/179/179
f 182/182/182 181/181/181 183/183/183
f 184/184/184 182/182/182 183/183/183
f 186/186/186 185/185/185 187/187/187
f 188/188/188 186/186/186 187/187/187
f 190/190/190 189/189/189 191/191/191
f 192/192/192 190/190/190 191/191/191
f 194/194/194 193/193/193 195/195/195
f 196/196/196 194/194/194 195/195/195
f 198/198/198 197/197/197 199/199/199
f 200/200/200 198/198/198 199/199/199
f 202/202/202 201/201/201 203/203/203
f 204/204/204 202/202/202 203/203/203
f 206/206/206 205/205/205 207/207/207
f 208/208/208 206/206/206 207/207/207
f 210/210/210 209/209/209 211/211/211
f 212/212/212 210/210/210 211/211/211
f 214/214/214 213/213/213 215/215/215
f 216/216/216 214/214/214 215/215/215
f 218/218/218 217/217/217 219/219/219
f 220/220/220 218/218/218 219/219/219
f 222/222/222 221/221/221 223/223/223
f 224/224/224 222/222/222 223/223/223
f 226/226/226 225/225/225 227/227/227
f 228/228/228 226/226/226 227/227/227
f 230/230/230 229/229/229 231/231/231
f 232/232/232 230/230/230 231/231/231
f 234/234/234 233/233/233 235/235/235
f 236/236/236 234/234/234 235/235/235
f 238/238/238 237/237/237 239/239/239
f 240/240/240 238/238/238 239/239/239
f 242/242/242 241/241/241 243/243/243
f 244/244/244 242/242/242 243/243/243
f 246/246/246 245/245/245 247/247/247
f 248/248/248 246/246/246 247/247/247
f 250/250/250 249/249/249 251/251/251
f 252/252/252 250/250/250 251/251/251
f 254/254/254 253/253/253 255/255/255
f 256/256/256 254/254/254 255/255/255
f 258/258/258 257/257/257 259/259/259
f 260/260/260 258/258/258 259/259/259
f 262/262/262 261/261/261 263/263/263
f 264/264/264 262/262/262 263/263/263
f 266/266/266 265/265/265 267/267/267
f 268/268/268 266/266/266 267/267/267
f 270/270/270 269/269/269 271/271/271
f 272/272/272 270/270/270 271/271/271
f 274/274/274 273/273/273 275/275/275
f 276/276/276 274/274/274 275/275/275
f 278/278/278 277/277/277 279/279/279
f 280/280/280 278/278/278 279/279/279
f 282/282/282 281/281/281 283/283/283
f 284/284/284 282/282/282 283/283/283
f 286/286/286 285/285/285 287/287/287
f 288/288/288 286/286/286 287/287/287
f 290/290/290 289/289/289 291/291/291
f 292/292/292 290/290/290 291/291/291
f 294/294/294 293/293/293 295/295/295
f 296/296/296 294/294/294 295/295/295
f 298/298/298 297/297/297 299/299/299
f 300/300/300 298/298/298 299/299/299
f 302/302/302 301/301/301 303/303/303
f 304/304/304 302/302/302 303/303/303
f 306/306/306 305/305/305 307/307/307
f 308/308/308 306/306/306 307/307/307
f 310/310/310 309/309/309 311/311/311
f 312/312/312 310/310/310 311/311/311
f 314/314/314 313/313/313 315/315/315
f 316/316/316 314/314/314 315/315/315
f 318/318/318 317/317/317 319/319/319
f 320/320/320 318/318/318 319/319/319
