mtllib ./WindmillBase.mtl
g pb-Cylinder-238702
v -2.205706 0 -0.6155984
v -2.205706 3.05 -0.6155984
v -2.217996 0 0.5697291
v -2.217996 3.05 0.5697291
v -2.217996 0 0.5697291
v -2.217996 3.05 0.5697291
v -1.635977 0 1.602398
v -1.635977 3.05 1.602398
v -1.635977 0 1.602398
v -1.635977 3.05 1.602398
v -0.6155983 0 2.205706
v -0.6155983 3.05 2.205706
v -0.6155983 0 2.205706
v -0.6155983 3.05 2.205706
v 0.5697293 0 2.217996
v 0.5697293 3.05 2.217996
v 0.5697293 0 2.217996
v 0.5697293 3.05 2.217996
v 1.602398 0 1.635977
v 1.602398 3.05 1.635977
v 1.602398 0 1.635977
v 1.602398 3.05 1.635977
v 2.205706 0 0.6155982
v 2.205706 3.05 0.6155982
v 2.205706 0 0.6155982
v 2.205706 3.05 0.6155982
v 2.217996 0 -0.569729
v 2.217996 3.05 -0.569729
v 2.217996 0 -0.569729
v 2.217996 3.05 -0.569729
v 1.635977 0 -1.602398
v 1.635977 3.05 -1.602398
v 1.635977 0 -1.602398
v 1.635977 3.05 -1.602398
v 0.6155983 0 -2.205706
v 0.6155983 3.05 -2.205706
v 0.6155983 0 -2.205706
v 0.6155983 3.05 -2.205706
v -0.5697289 0 -2.217997
v -0.5697289 3.05 -2.217997
v -0.5697289 0 -2.217997
v -0.5697289 3.05 -2.217997
v -1.602398 0 -1.635977
v -1.602398 3.05 -1.635977
v -1.602398 0 -1.635977
v -1.602398 3.05 -1.635977
v -2.205706 0 -0.6155984
v -2.205706 3.05 -0.6155984
v -2.205706 3.05 -0.6155984
v -2.205706 6.1 -0.6155984
v -2.217996 3.05 0.5697291
v -2.217996 6.1 0.5697291
v -2.217996 3.05 0.5697291
v -2.217996 6.1 0.5697291
v -1.635977 3.05 1.602398
v -1.635977 6.1 1.602398
v -1.635977 3.05 1.602398
v -1.635977 6.1 1.602398
v -0.6155983 3.05 2.205706
v -0.6155983 6.1 2.205706
v -0.6155983 3.05 2.205706
v -0.6155983 6.1 2.205706
v 0.5697293 3.05 2.217996
v 0.5697293 6.1 2.217996
v 0.5697293 3.05 2.217996
v 0.5697293 6.1 2.217996
v 1.602398 3.05 1.635977
v 1.602398 6.1 1.635977
v 1.602398 3.05 1.635977
v 1.602398 6.1 1.635977
v 2.205706 3.05 0.6155982
v 2.205706 6.1 0.6155982
v 2.205706 3.05 0.6155982
v 2.205706 6.1 0.6155982
v 2.217996 3.05 -0.569729
v 2.217996 6.1 -0.569729
v 2.217996 3.05 -0.569729
v 2.217996 6.1 -0.569729
v 1.635977 3.05 -1.602398
v 1.635977 6.1 -1.602398
v 1.635977 3.05 -1.602398
v 1.635977 6.1 -1.602398
v 0.6155983 3.05 -2.205706
v 0.6155983 6.1 -2.205706
v 0.6155983 3.05 -2.205706
v 0.6155983 6.1 -2.205706
v -0.5697289 3.05 -2.217997
v -0.5697289 6.1 -2.217997
v -0.5697289 3.05 -2.217997
v -0.5697289 6.1 -2.217997
v -1.602398 3.05 -1.635977
v -1.602398 6.1 -1.635977
v -1.602398 3.05 -1.635977
v -1.602398 6.1 -1.635977
v -2.205706 3.05 -0.6155984
v -2.205706 6.1 -0.6155984
v -2.205706 6.1 -0.6155984
v -2.205706 9.15 -0.6155984
v -2.217996 6.1 0.5697291
v -2.217996 9.15 0.5697291
v -2.217996 6.1 0.5697291
v -2.217996 9.15 0.5697291
v -1.635977 6.1 1.602398
v -1.635977 9.15 1.602398
v -1.635977 6.1 1.602398
v -1.635977 9.15 1.602398
v -0.6155983 6.1 2.205706
v -0.6155983 9.15 2.205706
v -0.6155983 6.1 2.205706
v -0.6155983 9.15 2.205706
v 0.5697293 6.1 2.217996
v 0.5697293 9.15 2.217996
v 0.5697293 6.1 2.217996
v 0.5697293 9.15 2.217996
v 1.602398 6.1 1.635977
v 1.602398 9.15 1.635977
v 1.602398 6.1 1.635977
v 1.602398 9.15 1.635977
v 2.205706 6.1 0.6155982
v 2.205706 9.15 0.6155982
v 2.205706 6.1 0.6155982
v 2.205706 9.15 0.6155982
v 2.217996 6.1 -0.569729
v 2.217996 9.15 -0.569729
v 2.217996 6.1 -0.569729
v 2.217996 9.15 -0.569729
v 1.635977 6.1 -1.602398
v 1.635977 9.15 -1.602398
v 1.635977 6.1 -1.602398
v 1.635977 9.15 -1.602398
v 0.6155983 6.1 -2.205706
v 0.6155983 9.15 -2.205706
v 0.6155983 6.1 -2.205706
v 0.6155983 9.15 -2.205706
v -0.5697289 6.1 -2.217997
v -0.5697289 9.15 -2.217997
v -0.5697289 6.1 -2.217997
v -0.5697289 9.15 -2.217997
v -1.602398 6.1 -1.635977
v -1.602398 9.15 -1.635977
v -1.602398 6.1 -1.635977
v -1.602398 9.15 -1.635977
v -2.205706 6.1 -0.6155984
v -2.205706 9.15 -0.6155984
v -2.205706 0 -0.6155984
v 0 0 0
v -2.217996 0 0.5697291
v -2.205706 9.15 -0.6155984
v 0 9.15 0
v -2.217996 9.15 0.5697291
v -2.217996 0 0.5697291
v 0 0 0
v -1.635977 0 1.602398
v -2.217996 9.15 0.5697291
v 0 9.15 0
v -1.635977 9.15 1.602398
v -1.635977 0 1.602398
v 0 0 0
v -0.6155983 0 2.205706
v -1.635977 9.15 1.602398
v 0 9.15 0
v -0.6155983 9.15 2.205706
v -0.6155983 0 2.205706
v 0 0 0
v 0.5697293 0 2.217996
v -0.6155983 9.15 2.205706
v 0 9.15 0
v 0.5697293 9.15 2.217996
v 0.5697293 0 2.217996
v 0 0 0
v 1.602398 0 1.635977
v 0.5697293 9.15 2.217996
v 0 9.15 0
v 1.602398 9.15 1.635977
v 1.602398 0 1.635977
v 0 0 0
v 2.205706 0 0.6155982
v 1.602398 9.15 1.635977
v 0 9.15 0
v 2.205706 9.15 0.6155982
v 2.205706 0 0.6155982
v 0 0 0
v 2.217996 0 -0.569729
v 2.205706 9.15 0.6155982
v 0 9.15 0
v 2.217996 9.15 -0.569729
v 2.217996 0 -0.569729
v 0 0 0
v 1.635977 0 -1.602398
v 2.217996 9.15 -0.569729
v 0 9.15 0
v 1.635977 9.15 -1.602398
v 1.635977 0 -1.602398
v 0 0 0
v 0.6155983 0 -2.205706
v 1.635977 9.15 -1.602398
v 0 9.15 0
v 0.6155983 9.15 -2.205706
v 0.6155983 0 -2.205706
v 0 0 0
v -0.5697289 0 -2.217997
v 0.6155983 9.15 -2.205706
v 0 9.15 0
v -0.5697289 9.15 -2.217997
v -0.5697289 0 -2.217997
v 0 0 0
v -1.602398 0 -1.635977
v -0.5697289 9.15 -2.217997
v 0 9.15 0
v -1.602398 9.15 -1.635977
v -1.602398 0 -1.635977
v 0 0 0
v -2.205706 0 -0.6155984
v -1.602398 9.15 -1.635977
v 0 9.15 0
v -2.205706 9.15 -0.6155984

vn -0.9999463 0 -0.01036835
vn -0.9999463 0 -0.01036835
vn -0.9999463 0 -0.01036835
vn -0.9999463 0 -0.01036835
vn -0.8711631 0 0.4909938
vn -0.8711631 0 0.4909938
vn -0.8711631 0 0.4909938
vn -0.8711631 0 0.4909938
vn -0.5089523 0 0.8607947
vn -0.5089523 0 0.8607947
vn -0.5089523 0 0.8607947
vn -0.5089523 0 0.8607947
vn -0.01036835 0 0.9999463
vn -0.01036835 0 0.9999463
vn -0.01036835 0 0.9999463
vn -0.01036835 0 0.9999463
vn 0.4909938 0 0.8711631
vn 0.4909938 0 0.8711631
vn 0.4909938 0 0.8711631
vn 0.4909938 0 0.8711631
vn 0.8607946 0 0.5089524
vn 0.8607946 0 0.5089524
vn 0.8607946 0 0.5089524
vn 0.8607946 0 0.5089524
vn 0.9999463 0 0.01036824
vn 0.9999463 0 0.01036824
vn 0.9999463 0 0.01036824
vn 0.9999463 0 0.01036824
vn 0.8711632 0 -0.4909938
vn 0.8711632 0 -0.4909938
vn 0.8711632 0 -0.4909938
vn 0.8711632 0 -0.4909938
vn 0.5089524 0 -0.8607947
vn 0.5089524 0 -0.8607947
vn 0.5089524 0 -0.8607947
vn 0.5089524 0 -0.8607947
vn 0.01036849 0 -0.9999463
vn 0.01036849 0 -0.9999463
vn 0.01036849 0 -0.9999463
vn 0.01036849 0 -0.9999463
vn -0.4909937 0 -0.8711631
vn -0.4909937 0 -0.8711631
vn -0.4909937 0 -0.8711631
vn -0.4909937 0 -0.8711631
vn -0.8607946 0 -0.5089525
vn -0.8607946 0 -0.5089525
vn -0.8607946 0 -0.5089525
vn -0.8607946 0 -0.5089525
vn -0.9999463 0 -0.01036835
vn -0.9999463 0 -0.01036835
vn -0.9999463 0 -0.01036835
vn -0.9999463 0 -0.01036835
vn -0.8711631 0 0.4909938
vn -0.8711631 0 0.4909938
vn -0.8711631 0 0.4909938
vn -0.8711631 0 0.4909938
vn -0.5089523 0 0.8607947
vn -0.5089523 0 0.8607947
vn -0.5089523 0 0.8607947
vn -0.5089523 0 0.8607947
vn -0.01036835 0 0.9999463
vn -0.01036835 0 0.9999463
vn -0.01036835 0 0.9999463
vn -0.01036835 0 0.9999463
vn 0.4909938 0 0.8711631
vn 0.4909938 0 0.8711631
vn 0.4909938 0 0.8711631
vn 0.4909938 0 0.8711631
vn 0.8607946 0 0.5089524
vn 0.8607946 0 0.5089524
vn 0.8607946 0 0.5089524
vn 0.8607946 0 0.5089524
vn 0.9999463 0 0.01036824
vn 0.9999463 0 0.01036824
vn 0.9999463 0 0.01036824
vn 0.9999463 0 0.01036824
vn 0.8711632 0 -0.4909938
vn 0.8711632 0 -0.4909938
vn 0.8711632 0 -0.4909938
vn 0.8711632 0 -0.4909938
vn 0.5089524 0 -0.8607947
vn 0.5089524 0 -0.8607947
vn 0.5089524 0 -0.8607947
vn 0.5089524 0 -0.8607947
vn 0.01036849 0 -0.9999463
vn 0.01036849 0 -0.9999463
vn 0.01036849 0 -0.9999463
vn 0.01036849 0 -0.9999463
vn -0.4909937 0 -0.8711631
vn -0.4909937 0 -0.8711631
vn -0.4909937 0 -0.8711631
vn -0.4909937 0 -0.8711631
vn -0.8607946 0 -0.5089525
vn -0.8607946 0 -0.5089525
vn -0.8607946 0 -0.5089525
vn -0.8607946 0 -0.5089525
vn -0.9999462 0 -0.01036836
vn -0.9999462 0 -0.01036836
vn -0.9999462 0 -0.01036836
vn -0.9999462 0 -0.01036836
vn -0.8711631 0 0.4909938
vn -0.8711631 0 0.4909938
vn -0.8711631 0 0.4909938
vn -0.8711631 0 0.4909938
vn -0.5089523 0 0.8607947
vn -0.5089523 0 0.8607947
vn -0.5089523 0 0.8607947
vn -0.5089523 0 0.8607947
vn -0.01036836 0 0.9999462
vn -0.01036836 0 0.9999462
vn -0.01036836 0 0.9999462
vn -0.01036836 0 0.9999462
vn 0.4909938 0 0.8711631
vn 0.4909938 0 0.8711631
vn 0.4909938 0 0.8711631
vn 0.4909938 0 0.8711631
vn 0.8607947 0 0.5089524
vn 0.8607947 0 0.5089524
vn 0.8607947 0 0.5089524
vn 0.8607947 0 0.5089524
vn 0.9999462 0 0.01036826
vn 0.9999462 0 0.01036826
vn 0.9999462 0 0.01036826
vn 0.9999462 0 0.01036826
vn 0.8711631 0 -0.4909937
vn 0.8711631 0 -0.4909937
vn 0.8711631 0 -0.4909937
vn 0.8711631 0 -0.4909937
vn 0.5089524 0 -0.8607947
vn 0.5089524 0 -0.8607947
vn 0.5089524 0 -0.8607947
vn 0.5089524 0 -0.8607947
vn 0.01036847 0 -0.9999462
vn 0.01036847 0 -0.9999462
vn 0.01036847 0 -0.9999462
vn 0.01036847 0 -0.9999462
vn -0.4909937 0 -0.8711631
vn -0.4909937 0 -0.8711631
vn -0.4909937 0 -0.8711631
vn -0.4909937 0 -0.8711631
vn -0.8607945 0 -0.5089525
vn -0.8607945 0 -0.5089525
vn -0.8607945 0 -0.5089525
vn -0.8607945 0 -0.5089525
vn 0 -1 0
vn 0 -1 0
vn 0 -1 0
vn 0 1 0
vn 0 1 0
vn 0 1 0
vn 0 -1 0
vn 0 -1 0
vn 0 -1 0
vn 0 1 0
vn 0 1 0
vn 0 1 0
vn 0 -1 0
vn 0 -1 0
vn 0 -1 0
vn 0 1 0
vn 0 1 0
vn 0 1 0
vn 0 -1 0
vn 0 -1 0
vn 0 -1 0
vn 0 1 0
vn 0 1 0
vn 0 1 0
vn 0 -0.9999999 0
vn 0 -0.9999999 0
vn 0 -0.9999999 0
vn 0 0.9999999 0
vn 0 0.9999999 0
vn 0 0.9999999 0
vn 0 -0.9999999 0
vn 0 -0.9999999 0
vn 0 -0.9999999 0
vn 0 0.9999999 0
vn 0 0.9999999 0
vn 0 0.9999999 0
vn 0 -1 0
vn 0 -1 0
vn 0 -1 0
vn 0 1 0
vn 0 1 0
vn 0 1 0
vn 0 -1 0
vn 0 -1 0
vn 0 -1 0
vn 0 1 0
vn 0 1 0
vn 0 1 0
vn 0 -0.9999999 0
vn 0 -0.9999999 0
vn 0 -0.9999999 0
vn 0 0.9999999 0
vn 0 0.9999999 0
vn 0 0.9999999 0
vn 0 -0.9999999 0
vn 0 -0.9999999 0
vn 0 -0.9999999 0
vn 0 0.9999999 0
vn 0 0.9999999 0
vn 0 0.9999999 0
vn 0 -1 0
vn 0 -1 0
vn 0 -1 0
vn 0 1 0
vn 0 1 0
vn 0 1 0
vn 0 -0.9999999 0
vn 0 -0.9999999 0
vn 0 -0.9999999 0
vn 0 0.9999999 0
vn 0 0.9999999 0
vn 0 0.9999999 0

vt 0 0
vt 0 3.05
vt 1.185391 0
vt 1.185391 3.05
vt 0 0
vt 0 3.05
vt 1.185391 0
vt 1.185391 3.05
vt 0 0
vt 0 3.05
vt 1.185391 0
vt 1.185391 3.05
vt 0 0
vt 0 3.05
vt 1.185391 0
vt 1.185391 3.05
vt 0 0
vt 0 3.05
vt 1.185391 0
vt 1.185391 3.05
vt 0 0
vt 0 3.05
vt 1.185391 0
vt 1.185391 3.05
vt 0 0
vt 0 3.05
vt 1.185391 0
vt 1.185391 3.05
vt 0 0
vt 0 3.05
vt 1.185392 0
vt 1.185392 3.05
vt -5.960464E-08 0
vt -5.960464E-08 3.05
vt 1.185391 0
vt 1.185391 3.05
vt 0 0
vt 0 3.05
vt 1.185391 0
vt 1.185391 3.05
vt 0 0
vt 0 3.05
vt 1.185391 0
vt 1.185391 3.05
vt 0 0
vt 0 3.05
vt 1.185392 0
vt 1.185392 3.05
vt 0 2.384186E-07
vt 0 3.05
vt 1.185391 2.384186E-07
vt 1.185391 3.05
vt 0 2.384186E-07
vt 0 3.05
vt 1.185391 2.384186E-07
vt 1.185391 3.05
vt 0 2.384186E-07
vt 0 3.05
vt 1.185391 2.384186E-07
vt 1.185391 3.05
vt 0 2.384186E-07
vt 0 3.05
vt 1.185391 2.384186E-07
vt 1.185391 3.05
vt 0 2.384186E-07
vt 0 3.05
vt 1.185391 2.384186E-07
vt 1.185391 3.05
vt 0 2.384186E-07
vt 0 3.05
vt 1.185391 2.384186E-07
vt 1.185391 3.05
vt 0 2.384186E-07
vt 0 3.05
vt 1.185391 2.384186E-07
vt 1.185391 3.05
vt 0 2.384186E-07
vt 0 3.05
vt 1.185392 2.384186E-07
vt 1.185392 3.05
vt -5.960464E-08 2.384186E-07
vt -5.960464E-08 3.05
vt 1.185391 2.384186E-07
vt 1.185391 3.05
vt 0 2.384186E-07
vt 0 3.05
vt 1.185391 2.384186E-07
vt 1.185391 3.05
vt 0 2.384186E-07
vt 0 3.05
vt 1.185391 2.384186E-07
vt 1.185391 3.05
vt 0 2.384186E-07
vt 0 3.05
vt 1.185392 2.384186E-07
vt 1.185392 3.05
vt 0 -4.768372E-07
vt 0 3.049999
vt 1.185391 -4.768372E-07
vt 1.185391 3.049999
vt 0 -4.768372E-07
vt 0 3.049999
vt 1.185391 -4.768372E-07
vt 1.185391 3.049999
vt 0 -4.768372E-07
vt 0 3.049999
vt 1.185391 -4.768372E-07
vt 1.185391 3.049999
vt 0 -4.768372E-07
vt 0 3.049999
vt 1.185391 -4.768372E-07
vt 1.185391 3.049999
vt 0 -4.768372E-07
vt 0 3.049999
vt 1.185391 -4.768372E-07
vt 1.185391 3.049999
vt 0 -4.768372E-07
vt 0 3.049999
vt 1.185391 -4.768372E-07
vt 1.185391 3.049999
vt 0 -4.768372E-07
vt 0 3.049999
vt 1.185391 -4.768372E-07
vt 1.185391 3.049999
vt 0 -4.768372E-07
vt 0 3.049999
vt 1.185392 -4.768372E-07
vt 1.185392 3.049999
vt 0 -4.768372E-07
vt 0 3.049999
vt 1.185391 -4.768372E-07
vt 1.185391 3.049999
vt -5.960464E-08 -4.768372E-07
vt -5.960464E-08 3.049999
vt 1.185391 -4.768372E-07
vt 1.185391 3.049999
vt 5.960464E-08 -4.768372E-07
vt 5.960464E-08 3.049999
vt 1.185391 -4.768372E-07
vt 1.185391 3.049999
vt 0 -4.768372E-07
vt 0 3.049999
vt 1.185392 -4.768372E-07
vt 1.185392 3.049999
vt 0 0
vt 2.29 0
vt 0.3068019 1.145
vt 2.29 0
vt 0 0
vt 1.983198 1.145
vt 0 1.145
vt 1.983198 0
vt 0.8381982 1.983198
vt 1.983198 1.145
vt 0 0
vt 1.145 1.983198
vt 0 1.983198
vt 1.145 0
vt 1.145 2.29
vt 1.145 1.983198
vt 1.192093E-07 0
vt 0 2.29
vt 1.192093E-07 2.29
vt 0 0
vt 1.145 1.983198
vt 1.145 2.29
vt 1.145 0
vt 0 1.983198
vt 1.145 1.983198
vt 0 0
vt 1.983198 1.145
vt 0.8381979 1.983198
vt 1.983198 0
vt 0 1.145
vt 1.983198 1.145
vt 0 2.384186E-07
vt 2.29 5.960464E-08
vt 0.3068019 1.145
vt 2.29 2.384186E-07
vt 0 5.960464E-08
vt 2.29 1.145
vt 0 1.145
vt 1.983198 0
vt 0 1.145
vt 2.29 1.145
vt 0.3068019 0
vt 1.983198 0.8381984
vt 0 1.983198
vt 1.145 0
vt 0 0.8381984
vt 1.983198 1.983198
vt 0.8381983 0
vt 1.145 0.3068017
vt 0 2.29
vt 0 0
vt 0 0.3068017
vt 1.145 2.29
vt 1.145 0
vt 1.145 0
vt 1.145 2.29
vt 0 0.3068017
vt 0 0
vt 0 2.29
vt 1.145 0.3068017
vt 0.8381982 0
vt 1.983198 1.983198
vt 0 0.8381979
vt 1.145 0
vt 0 1.983198
vt 1.983198 0.8381979
vt 0.306802 0
vt 2.29 1.145
vt 0 1.145
vt 1.983198 0
vt 0 1.145
vt 2.29 1.145

usemtl Default_Prototype
usemap Default_Prototype
f 2/2/2 1/1/1 3/3/3
f 4/4/4 2/2/2 3/3/3
f 6/6/6 5/5/5 7/7/7
f 8/8/8 6/6/6 7/7/7
f 10/10/10 9/9/9 11/11/11
f 12/12/12 10/10/10 11/11/11
f 14/14/14 13/13/13 15/15/15
f 16/16/16 14/14/14 15/15/15
f 18/18/18 17/17/17 19/19/19
f 20/20/20 18/18/18 19/19/19
f 22/22/22 21/21/21 23/23/23
f 24/24/24 22/22/22 23/23/23
f 26/26/26 25/25/25 27/27/27
f 28/28/28 26/26/26 27/27/27
f 30/30/30 29/29/29 31/31/31
f 32/32/32 30/30/30 31/31/31
f 34/34/34 33/33/33 35/35/35
f 36/36/36 34/34/34 35/35/35
f 38/38/38 37/37/37 39/39/39
f 40/40/40 38/38/38 39/39/39
f 42/42/42 41/41/41 43/43/43
f 44/44/44 42/42/42 43/43/43
f 46/46/46 45/45/45 47/47/47
f 48/48/48 46/46/46 47/47/47
f 50/50/50 49/49/49 51/51/51
f 52/52/52 50/50/50 51/51/51
f 54/54/54 53/53/53 55/55/55
f 56/56/56 54/54/54 55/55/55
f 58/58/58 57/57/57 59/59/59
f 60/60/60 58/58/58 59/59/59
f 62/62/62 61/61/61 63/63/63
f 64/64/64 62/62/62 63/63/63
f 66/66/66 65/65/65 67/67/67
f 68/68/68 66/66/66 67/67/67
f 70/70/70 69/69/69 71/71/71
f 72/72/72 70/70/70 71/71/71
f 74/74/74 73/73/73 75/75/75
f 76/76/76 74/74/74 75/75/75
f 78/78/78 77/77/77 79/79/79
f 80/80/80 78/78/78 79/79/79
f 82/82/82 81/81/81 83/83/83
f 84/84/84 82/82/82 83/83/83
f 86/86/86 85/85/85 87/87/87
f 88/88/88 86/86/86 87/87/87
f 90/90/90 89/89/89 91/91/91
f 92/92/92 90/90/90 91/91/91
f 94/94/94 93/93/93 95/95/95
f 96/96/96 94/94/94 95/95/95
f 98/98/98 97/97/97 99/99/99
f 100/100/100 98/98/98 99/99/99
f 102/102/102 101/101/101 103/103/103
f 104/104/104 102/102/102 103/103/103
f 106/106/106 105/105/105 107/107/107
f 108/108/108 106/106/106 107/107/107
f 110/110/110 109/109/109 111/111/111
f 112/112/112 110/110/110 111/111/111
f 114/114/114 113/113/113 115/115/115
f 116/116/116 114/114/114 115/115/115
f 118/118/118 117/117/117 119/119/119
f 120/120/120 118/118/118 119/119/119
f 122/122/122 121/121/121 123/123/123
f 124/124/124 122/122/122 123/123/123
f 126/126/126 125/125/125 127/127/127
f 128/128/128 126/126/126 127/127/127
f 130/130/130 129/129/129 131/131/131
f 132/132/132 130/130/130 131/131/131
f 134/134/134 133/133/133 135/135/135
f 136/136/136 134/134/134 135/135/135
f 138/138/138 137/137/137 139/139/139
f 140/140/140 138/138/138 139/139/139
f 142/142/142 141/141/141 143/143/143
f 144/144/144 142/142/142 143/143/143
f 146/146/146 147/147/147 145/145/145
f 152/152/152 153/153/153 151/151/151
f 158/158/158 159/159/159 157/157/157
f 164/164/164 165/165/165 163/163/163
f 170/170/170 171/171/171 169/169/169
f 176/176/176 177/177/177 175/175/175
f 182/182/182 183/183/183 181/181/181
f 188/188/188 189/189/189 187/187/187
f 194/194/194 195/195/195 193/193/193
f 200/200/200 201/201/201 199/199/199
f 206/206/206 207/207/207 205/205/205
f 212/212/212 213/213/213 211/211/211
f 149/149/149 148/148/148 150/150/150
f 155/155/155 154/154/154 156/156/156
f 161/161/161 160/160/160 162/162/162
f 167/167/167 166/166/166 168/168/168
f 173/173/173 172/172/172 174/174/174
f 179/179/179 178/178/178 180/180/180
f 185/185/185 184/184/184 186/186/186
f 191/191/191 190/190/190 192/192/192
f 197/197/197 196/196/196 198/198/198
f 203/203/203 202/202/202 204/204/204
f 209/209/209 208/208/208 210/210/210
f 215/215/215 214/214/214 216/216/216
